SplineFontDB: 3.0
FontName: Bodoni-11-Book
FullName: Bodoni* 11 Book
FamilyName: Bodoni* 11
Weight: Book
Copyright: Copyright (c) 2017, Owen Earl,,, (EwonRael@yahoo.com)
Version: 001.0
ItalicAngle: 0
UnderlinePosition: -408
UnderlineWidth: 204
Ascent: 3276
Descent: 820
InvalidEm: 0
LayerCount: 2
Layer: 0 0 "Back" 1
Layer: 1 0 "Fore" 0
PreferredKerning: 4
XUID: [1021 31 -699969567 16487490]
FSType: 0
OS2Version: 0
OS2_WeightWidthSlopeOnly: 0
OS2_UseTypoMetrics: 1
CreationTime: 1460762150
ModificationTime: 1573579099
PfmFamily: 17
TTFWeight: 400
TTFWidth: 5
LineGap: 0
VLineGap: 0
OS2TypoAscent: 4194
OS2TypoAOffset: 0
OS2TypoDescent: -820
OS2TypoDOffset: 0
OS2TypoLinegap: 0
OS2WinAscent: 4096
OS2WinAOffset: 0
OS2WinDescent: 1638
OS2WinDOffset: 0
HheadAscent: 4194
HheadAOffset: 0
HheadDescent: -820
HheadDOffset: 0
OS2CapHeight: 3072
OS2XHeight: 1884
OS2FamilyClass: 768
OS2Vendor: 'it* '
OS2UnicodeRanges: 00000001.00000000.00000000.00000000
Lookup: 1 0 0 "'ss02' Style Set 2 lookup 4" { "'ss02' Style Set 2 lookup 4-1"  } ['ss02' ('DFLT' <'dflt' > 'grek' <'dflt' > 'latn' <'dflt' > ) ]
Lookup: 1 0 0 "'ss03' Style Set 3 lookup 5" { "'ss03' Style Set 3 lookup 5-1"  } ['ss03' ('DFLT' <'dflt' > 'grek' <'dflt' > 'latn' <'dflt' > ) ]
Lookup: 1 0 0 "'ss01' Style Set 1 lookup 2" { "'ss01' Style Set 1 lookup 2-1"  } ['ss01' ('DFLT' <'dflt' > 'grek' <'dflt' > 'latn' <'dflt' > ) ]
Lookup: 5 0 0 "'calt' Contextual Alternates lookup 3" { "'calt' Contextual Alternates lookup 3-1"  } ['calt' ('DFLT' <'dflt' > 'grek' <'dflt' > 'latn' <'dflt' > ) ]
Lookup: 4 0 1 "'liga' Standard Ligatures lookup 0" { "'liga' Standard Ligatures lookup 0-1"  } ['liga' ('DFLT' <'dflt' > 'grek' <'dflt' > 'latn' <'dflt' > ) ]
Lookup: 258 0 0 "'kern' Horizontal Kerning lookup 0" { "kerning like they all do" [150,0,6] } ['kern' ('DFLT' <'dflt' > 'grek' <'dflt' > 'latn' <'dflt' > ) ]
MarkAttachClasses: 1
DEI: 91125
KernClass2: 31 27 "kerning like they all do"

StartChar: ampersand
Encoding: 38 38 0
GlifName: ampersand
Width: 3293
Flags: HMW
LayerCount: 2
Fore
SplineSet
1436 1730 m 13
 1401 1797 l 5
 1597 1918 1847 2162 1847 2580 c 4
 1847 2773.01036242 1777 3052 1470 3052 c 4
 1155 3052 1049 2838 1049 2621 c 4
 1049 2478 1151 2269 1327 2007 c 6
 2626 82 l 5
 3150 82 l 5
 3150 0 l 5
 2191 0 l 5
 836 2007 l 6
 730 2163 647 2368 647 2511 c 4
 647 2880 995 3113 1470 3113 c 4
 1908 3113 2242 2898 2242 2570 c 4
 2242 2126 1868 1954 1436 1730 c 13
1146 1646 m 5
 1164 1581 l 5
 814 1393 614 1179 614 728 c 4
 614 401 881 123 1266 123 c 4
 2028 123 2687 1016 2769 1843 c 5
 2851 1843 l 5
 2728 930 2056 -41 1102 -41 c 4
 557 -41 164 233 164 707 c 4
 164 1302 991 1570 1146 1646 c 5
2228 1884 m 5
 3211 1884 l 5
 3211 1802 l 5
 2228 1802 l 5
 2228 1884 l 5
EndSplineSet
Validated: 5
EndChar

StartChar: period
Encoding: 46 46 1
GlifName: period
Width: 819
Flags: HMW
LayerCount: 2
Fore
SplineSet
164 205 m 4
 164 340 275 451 410 451 c 4
 545 451 655 340 655 205 c 4
 655 70 545 -41 410 -41 c 4
 275 -41 164 70 164 205 c 4
EndSplineSet
Validated: 1
EndChar

StartChar: zero
Encoding: 48 48 2
GlifName: zero
Width: 2539
Flags: HMW
LayerCount: 2
Fore
SplineSet
1270 -41 m 4
 602 -41 164 664 164 1536 c 4
 164 2408 643 3113 1270 3113 c 4
 1897 3113 2376 2408 2376 1536 c 4
 2376 664 1938 -41 1270 -41 c 4
1270 3043 m 4
 762 3043 635 2281 635 1536 c 4
 635 791 721 29 1270 29 c 4
 1819 29 1905 791 1905 1536 c 4
 1905 2281 1778 3043 1270 3043 c 4
EndSplineSet
Validated: 1
EndChar

StartChar: one
Encoding: 49 49 3
GlifName: one
Width: 1781
VWidth: 4730
Flags: HMW
LayerCount: 2
Fore
SplineSet
205 82 m 1
 1577 82 l 1
 1577 0 l 1
 205 0 l 1
 205 82 l 1
274 3072 m 1
 1126 3072 l 1
 1126 41 l 5
 737 41 l 5
 737 2990 l 1
 274 2990 l 1
 274 3072 l 1
EndSplineSet
Validated: 5
EndChar

StartChar: two
Encoding: 50 50 4
GlifName: two
Width: 2252
VWidth: 4730
Flags: HMW
LayerCount: 2
Fore
SplineSet
2109 0 m 1
 164 0 l 1
 164 266 l 1
 1057 1139 l 2
 1385 1467 1614 1868 1614 2253 c 0
 1614 2720 1396 2966 954 2966 c 0
 528 2966 323 2650 307 2294 c 1
 352 2347 417 2384 487 2384 c 0
 606 2384 729 2297 729 2154 c 0
 729 1990 614 1892 471 1892 c 0
 328 1892 209 1995 209 2249 c 0
 209 2728 524 3113 1126 3113 c 0
 1704 3113 2023 2745 2023 2335 c 0
 2023 1925 1782 1704 1561 1487 c 2
 406 369 l 1
 2028 369 l 1
 2028 676 l 1
 2109 676 l 1
 2109 0 l 1
EndSplineSet
Validated: 1
EndChar

StartChar: three
Encoding: 51 51 5
GlifName: three
Width: 2134
VWidth: 4730
Flags: HMW
LayerCount: 2
Fore
SplineSet
1970 819 m 0
 1970 287 1524 -41 946 -41 c 0
 364 -41 102 262 102 557 c 0
 102 725 205 823 348 823 c 0
 471 823 569 741 569 594 c 0
 569 463 455 369 336 369 c 0
 291 369 262 381 246 385 c 1
 266 270 475 70 864 70 c 0
 1351 70 1556 434 1556 819 c 0
 1556 1122 1442 1622 750 1622 c 1
 750 1679 l 1
 1737 1679 1970 1270 1970 819 c 0
750 1642 m 1
 750 1700 l 1
 1401 1700 1434 2159 1434 2421 c 0
 1434 2724 1250 3002 926 3002 c 0
 623 3002 430 2839 369 2724 c 1
 385 2728 414 2740 459 2740 c 0
 578 2740 692 2658 692 2515 c 0
 692 2351 561 2286 459 2286 c 0
 336 2286 225 2372 225 2540 c 0
 225 2835 569 3109 987 3109 c 0
 1442 3109 1847 2872 1847 2421 c 0
 1847 2011 1696 1642 750 1642 c 1
EndSplineSet
Validated: 5
EndChar

StartChar: four
Encoding: 52 52 6
GlifName: four
Width: 2437
VWidth: 4730
Flags: HMW
LayerCount: 2
Fore
SplineSet
2253 82 m 1
 2253 0 l 1
 1167 0 l 1
 1167 82 l 1
 1556 82 l 1
 1556 2818 l 1
 299 922 l 1
 2396 922 l 1
 2396 840 l 5
 143 840 l 1
 1618 3072 l 1
 1946 3072 l 1
 1946 82 l 1
 2253 82 l 1
EndSplineSet
Validated: 5
Substitution2: "'ss03' Style Set 3 lookup 5-1" four.alt
EndChar

StartChar: five
Encoding: 53 53 7
GlifName: five
Width: 2048
VWidth: 4730
Flags: HMW
LayerCount: 2
Fore
SplineSet
1782 2703 m 5
 356 2703 l 1
 356 1544 l 1
 274 1544 l 1
 274 3072 l 1
 1700 3072 l 1
 1700 3297 l 1
 1782 3297 l 5
 1782 2703 l 5
266 344 m 5
 307 250 500 45 844 45 c 0
 1372 45 1495 557 1495 942 c 0
 1495 1409 1307 1810 942 1810 c 0
 635 1810 446 1638 385 1544 c 1
 315 1544 l 1
 381 1696 618 1925 1032 1925 c 0
 1569 1925 1925 1556 1925 942 c 0
 1925 410 1503 -41 885 -41 c 0
 467 -41 123 233 123 528 c 0
 123 696 233 782 356 782 c 0
 458 782 590 717 590 553 c 0
 590 410 475 328 356 328 c 0
 311 328 291 336 266 344 c 5
EndSplineSet
Validated: 5
EndChar

StartChar: six
Encoding: 54 54 8
GlifName: six
Width: 2293
VWidth: 4730
Flags: HMW
LayerCount: 2
Fore
SplineSet
1761 1024 m 0
 1761 1573 1549 1888 1184 1888 c 0
 844 1888 614 1598 614 1147 c 1
 557 1147 l 1
 557 1626 737 2007 1274 2007 c 0
 1688 2007 2171 1720 2171 1024 c 0
 2171 410 1822 -41 1204 -41 c 0
 586 -41 205 410 205 1270 c 0
 205 2265 951 3113 1864 3113 c 1
 1864 3043 l 1
 1151 3043 635 2221 635 1516 c 1
 614 1147 l 1
 614 598 771 41 1217 41 c 0
 1663 41 1761 557 1761 1024 c 0
EndSplineSet
Validated: 5
EndChar

StartChar: seven
Encoding: 55 55 9
GlifName: seven
Width: 2068
VWidth: 4730
Flags: HMW
LayerCount: 2
Fore
SplineSet
688 311 m 0
 688 635 955 1061 1184 1507 c 0
 1344 1814 1593 2327 1761 2683 c 1
 246 2683 l 1
 246 2376 l 1
 164 2376 l 1
 164 3072 l 1
 2028 3072 l 1
 2028 3072 1545 2076 1266 1507 c 0
 1078 1122 1044 966 1044 786 c 0
 1044 487 1221 426 1221 238 c 0
 1221 86 1138 -41 958 -41 c 0
 798 -41 688 28 688 311 c 0
EndSplineSet
Validated: 1
EndChar

StartChar: eight
Encoding: 56 56 10
GlifName: eight
Width: 2252
VWidth: 4730
Flags: HMW
LayerCount: 2
Fore
SplineSet
655 2294 m 0
 655 1950 761 1618 1126 1618 c 0
 1491 1618 1597 1950 1597 2294 c 0
 1597 2638 1491 3031 1126 3031 c 0
 761 3031 655 2638 655 2294 c 0
246 2294 m 0
 246 2745 548 3113 1126 3113 c 0
 1704 3113 2007 2745 2007 2294 c 0
 2007 1843 1704 1556 1126 1556 c 0
 548 1556 246 1843 246 2294 c 0
573 778 m 0
 573 393 720 41 1126 41 c 0
 1532 41 1679 393 1679 778 c 0
 1679 1163 1532 1536 1126 1536 c 0
 720 1536 573 1163 573 778 c 0
164 778 m 0
 164 1270 467 1597 1126 1597 c 0
 1785 1597 2089 1270 2089 778 c 0
 2089 286 1785 -41 1126 -41 c 0
 467 -41 164 286 164 778 c 0
EndSplineSet
Validated: 5
EndChar

StartChar: A
Encoding: 65 65 12
GlifName: A_
Width: 3010
Flags: HMW
LayerCount: 2
Fore
SplineSet
82 82 m 1
 983 82 l 1
 983 0 l 1
 82 0 l 1
 82 82 l 1
1761 82 m 1
 2949 82 l 1
 2949 0 l 1
 1761 0 l 1
 1761 82 l 1
778 1044 m 1
 2130 1044 l 1
 2130 963 l 1
 778 963 l 1
 778 1044 l 1
1380 2572 m 1
 487 0 l 1
 385 0 l 1
 1495 3133 l 1
 1577 3133 l 1
 2662 0 l 1
 2212 0 l 1
 1380 2572 l 1
EndSplineSet
Validated: 5
EndChar

StartChar: B
Encoding: 66 66 13
GlifName: B_
Width: 2580
Flags: HMW
LayerCount: 2
Fore
SplineSet
1270 1556 m 2
 819 1556 l 1
 819 1618 l 1
 1270 1618 l 2
 1581 1618 1884 1786 1884 2273 c 0
 1884 2760 1581 2990 1270 2990 c 2
 82 2990 l 1
 82 3072 l 1
 1270 3072 l 2
 1888 3072 2294 2846 2294 2314 c 0
 2294 1782 1929 1556 1270 1556 c 2
451 3072 m 1
 840 3072 l 1
 840 0 l 1
 451 0 l 1
 451 3072 l 1
1352 0 m 2
 82 0 l 1
 82 82 l 1
 1311 82 l 2
 1663 82 1966 373 1966 860 c 0
 1966 1347 1663 1536 1311 1536 c 2
 819 1536 l 1
 819 1597 l 1
 1352 1597 l 2
 1930 1597 2417 1392 2417 860 c 0
 2417 246 2011 0 1352 0 c 2
EndSplineSet
Validated: 5
EndChar

StartChar: C
Encoding: 67 67 14
GlifName: C_
Width: 2744
Flags: HMW
LayerCount: 2
Fore
SplineSet
2478 3072 m 1
 2540 3072 l 1
 2540 2232 l 1
 2470.56448637 2448.38051279 2395 2643 2273 2826 c 1
 2478 3072 l 1
2540 2232 m 1
 2458 2232 l 1
 2417 2691 2044 3011 1618 3011 c 0
 905 3011 655 2281 655 1536 c 0
 655 791 905 61 1618 61 c 0
 2126 61 2458 422 2499 840 c 1
 2580 840 l 1
 2580 336 2163 -41 1577 -41 c 0
 746 -41 184 623 184 1536 c 0
 184 2449 746 3113 1577 3113 c 0
 2101 3113 2540 2736 2540 2232 c 1
2580 840 m 5
 2580 0 l 1
 2519 0 l 1
 2314 287 l 5
 2472.43229324 506.243312674 2534 626 2580 840 c 5
EndSplineSet
Validated: 5
EndChar

StartChar: D
Encoding: 68 68 15
GlifName: D_
Width: 2867
Flags: HMW
LayerCount: 2
Fore
SplineSet
451 3072 m 1
 840 3072 l 1
 840 0 l 1
 451 0 l 1
 451 3072 l 1
1229 0 m 2
 82 0 l 1
 82 82 l 1
 1229 82 l 2
 1983 82 2232 791 2232 1536 c 0
 2232 2281 1942 2990 1229 2990 c 2
 82 2990 l 1
 82 3072 l 1
 1229 3072 l 2
 2142 3072 2703 2408 2703 1536 c 0
 2703 664 2101 0 1229 0 c 2
EndSplineSet
Validated: 5
EndChar

StartChar: E
Encoding: 69 69 16
GlifName: E_
Width: 2396
Flags: HMW
LayerCount: 2
Fore
SplineSet
2191 922 m 1
 2273 922 l 1
 2273 0 l 1
 82 0 l 1
 82 82 l 1
 1495 82 l 2
 2056 82 2191 402 2191 922 c 1
451 3072 m 1
 840 3072 l 1
 840 0 l 1
 451 0 l 1
 451 3072 l 1
82 3072 m 1
 2232 3072 l 1
 2232 2232 l 1
 2150 2232 l 1
 2150 2670 2015 2990 1536 2990 c 2
 82 2990 l 1
 82 3072 l 1
1454 1139 m 1
 1454 1413 1318 1548 1085 1548 c 2
 758 1548 l 1
 758 1630 l 1
 1085 1630 l 2
 1318 1630 1454 1745 1454 2019 c 1
 1536 2019 l 1
 1536 1139 l 1
 1454 1139 l 1
EndSplineSet
Validated: 5
EndChar

StartChar: F
Encoding: 70 70 17
GlifName: F_
Width: 2314
Flags: HMW
LayerCount: 2
Fore
SplineSet
82 3072 m 1
 2191 3072 l 1
 2191 2232 l 1
 2109 2232 l 1
 2109 2670 1974 2990 1495 2990 c 2
 82 2990 l 1
 82 3072 l 1
82 82 m 1
 1249 82 l 1
 1249 0 l 1
 82 0 l 1
 82 82 l 1
451 3072 m 1
 840 3072 l 1
 840 0 l 1
 451 0 l 1
 451 3072 l 1
1495 1098 m 1
 1495 1372 1380 1487 1024 1487 c 2
 758 1487 l 1
 758 1569 l 1
 1024 1569 l 2
 1380 1569 1495 1663 1495 1937 c 1
 1577 1937 l 1
 1577 1098 l 1
 1495 1098 l 1
EndSplineSet
Validated: 5
EndChar

StartChar: G
Encoding: 71 71 18
GlifName: G_
Width: 2928
Flags: HMW
LayerCount: 2
Fore
SplineSet
2540 2232 m 5
 2455.3397649 2431.45969788 2379.74001804 2633.96692844 2273 2826 c 5
 2478 3072 l 1
 2540 3072 l 1
 2540 2232 l 5
1782 1208 m 1
 2888 1208 l 1
 2888 1126 l 1
 1782 1126 l 1
 1782 1208 l 1
2212 1147 m 1
 2642 1147 l 1
 2642 676 l 1
 2519 418 2184 -41 1516 -41 c 0
 664 -41 184 623 184 1536 c 0
 184 2449 746 3113 1577 3113 c 0
 2101 3113 2540 2736 2540 2232 c 1
 2458 2232 l 1
 2417 2691 2044 3011 1618 3011 c 0
 905 3011 655 2281 655 1536 c 0
 655 791 824 41 1516 41 c 0
 2024 41 2171 422 2212 512 c 1
 2212 1147 l 1
EndSplineSet
Validated: 5
EndChar

StartChar: H
Encoding: 72 72 19
GlifName: H_
Width: 3010
Flags: HMW
LayerCount: 2
Fore
SplineSet
758 1556 m 1
 2273 1556 l 5
 2273 1475 l 5
 758 1475 l 1
 758 1556 l 1
1782 82 m 1
 2949 82 l 1
 2949 0 l 1
 1782 0 l 1
 1782 82 l 1
82 82 m 1
 1249 82 l 1
 1249 0 l 1
 82 0 l 1
 82 82 l 1
1782 3072 m 1
 2949 3072 l 1
 2949 2990 l 1
 1782 2990 l 1
 1782 3072 l 1
82 3072 m 1
 1249 3072 l 1
 1249 2990 l 1
 82 2990 l 1
 82 3072 l 1
2191 3072 m 1
 2580 3072 l 1
 2580 0 l 1
 2191 0 l 1
 2191 3072 l 1
451 3072 m 1
 840 3072 l 1
 840 0 l 1
 451 0 l 1
 451 3072 l 1
EndSplineSet
Validated: 5
EndChar

StartChar: I
Encoding: 73 73 20
GlifName: I_
Width: 1474
Flags: HMW
LayerCount: 2
Fore
SplineSet
82 82 m 1
 1413 82 l 5
 1413 0 l 5
 82 0 l 1
 82 82 l 1
82 3072 m 1
 1413 3072 l 5
 1413 2990 l 5
 82 2990 l 1
 82 3072 l 1
532 3072 m 1
 922 3072 l 5
 922 0 l 5
 532 0 l 1
 532 3072 l 1
EndSplineSet
Validated: 5
EndChar

StartChar: J
Encoding: 74 74 21
GlifName: J_
Width: 1744
Flags: HMW
LayerCount: 2
Fore
SplineSet
352 3072 m 1
 1683 3072 l 1
 1683 2990 l 1
 352 2990 l 1
 352 3072 l 1
885 3072 m 1
 1274 3072 l 1
 1274 696 l 1
 1192 409 1033 -123 537 -123 c 0
 222 -123 61 143 61 348 c 0
 61 520 172 614 295 614 c 0
 397 614 524 541 524 373 c 0
 524 209 405 135 266 135 c 0
 254 135 237 139 229 139 c 1
 266 73 349 -41 537 -41 c 0
 828 -41 885 205 885 778 c 2
 885 3072 l 1
EndSplineSet
Validated: 5
Substitution2: "'ss02' Style Set 2 lookup 4-1" J.alt
EndChar

StartChar: K
Encoding: 75 75 22
GlifName: K_
Width: 2785
Flags: HMW
LayerCount: 2
Fore
SplineSet
82 82 m 1
 1249 82 l 1
 1249 0 l 1
 82 0 l 1
 82 82 l 1
82 3072 m 1
 1249 3072 l 1
 1249 2990 l 1
 82 2990 l 1
 82 3072 l 1
451 3072 m 1
 840 3072 l 1
 840 0 l 1
 451 0 l 1
 451 3072 l 1
602 889 m 1
 479 889 l 1
 2093 3064 l 1
 2216 3064 l 1
 602 889 l 1
1495 82 m 1
 2765 82 l 1
 2765 0 l 1
 1495 0 l 1
 1495 82 l 1
2580 2990 m 1
 1597 2990 l 1
 1597 3072 l 1
 2580 3072 l 1
 2580 2990 l 1
2445 0 m 1
 1954 0 l 1
 1061 1597 l 1
 1323 1896 l 1
 2445 0 l 1
EndSplineSet
Validated: 5
EndChar

StartChar: L
Encoding: 76 76 23
GlifName: L_
Width: 2334
Flags: HMW
LayerCount: 2
Fore
SplineSet
451 3072 m 1
 840 3072 l 1
 840 0 l 1
 451 0 l 1
 451 3072 l 1
82 3072 m 1
 1208 3072 l 1
 1208 2990 l 1
 82 2990 l 1
 82 3072 l 1
2253 0 m 1
 82 0 l 1
 82 82 l 1
 1475 82 l 2
 2118 82 2171 402 2171 922 c 1
 2253 922 l 1
 2253 0 l 1
EndSplineSet
Validated: 5
EndChar

StartChar: M
Encoding: 77 77 24
GlifName: M_
Width: 3379
Flags: HMW
LayerCount: 2
Fore
SplineSet
3318 3072 m 1
 3318 2990 l 1
 3031 2990 l 1
 3031 0 l 1
 2642 0 l 1
 2642 3072 l 1
 3318 3072 l 1
102 82 m 1
 766 82 l 1
 766 0 l 1
 102 0 l 1
 102 82 l 1
2314 82 m 1
 3318 82 l 1
 3318 0 l 1
 2314 0 l 1
 2314 82 l 1
1733 532 m 1
 2593 3072 l 1
 2683 3072 l 1
 1630 -41 l 1
 1540 -41 l 1
 401 3072 l 1
 795 3072 l 1
 1733 532 l 1
389 2990 m 1
 82 2990 l 1
 82 3072 l 1
 479 3072 l 1
 479 0 l 1
 389 0 l 1
 389 2990 l 1
EndSplineSet
Validated: 5
EndChar

StartChar: N
Encoding: 78 78 25
GlifName: N_
Width: 2990
Flags: HMW
LayerCount: 2
Fore
SplineSet
2408 3072 m 1
 2499 3072 l 1
 2499 -41 l 1
 2355 -41 l 1
 492 3072 l 1
 963 3072 l 1
 2408 643 l 1
 2408 3072 l 1
1958 3072 m 1
 2929 3072 l 1
 2929 2990 l 1
 1958 2990 l 1
 1958 3072 l 1
82 82 m 1
 1073 82 l 1
 1073 0 l 1
 82 0 l 1
 82 82 l 1
512 2990 m 1
 82 2990 l 1
 82 3072 l 1
 602 3072 l 1
 602 0 l 1
 512 0 l 1
 512 2990 l 1
EndSplineSet
Validated: 5
EndChar

StartChar: O
Encoding: 79 79 26
GlifName: O_
Width: 2969
Flags: HMW
LayerCount: 2
Fore
SplineSet
1495 -41 m 4
 664 -41 184 664 184 1536 c 4
 184 2408 704 3113 1495 3113 c 4
 2286 3113 2806 2408 2806 1536 c 4
 2806 664 2326 -41 1495 -41 c 4
1495 3043 m 4
 823 3043 655 2281 655 1536 c 4
 655 791 782 29 1495 29 c 4
 2208 29 2335 791 2335 1536 c 4
 2335 2281 2167 3043 1495 3043 c 4
EndSplineSet
Validated: 1
EndChar

StartChar: P
Encoding: 80 80 27
GlifName: P_
Width: 2498
Flags: HMW
LayerCount: 2
Fore
SplineSet
451 3072 m 1
 840 3072 l 1
 840 0 l 1
 451 0 l 1
 451 3072 l 1
82 82 m 1
 1208 82 l 1
 1208 0 l 1
 82 0 l 1
 82 82 l 1
1290 1352 m 2
 758 1352 l 1
 758 1434 l 1
 1290 1434 l 2
 1683 1434 1905 1847 1905 2212 c 0
 1905 2577 1683 2990 1290 2990 c 2
 82 2990 l 1
 82 3072 l 1
 1290 3072 l 2
 2031 3072 2355 2744 2355 2212 c 0
 2355 1680 2031 1352 1290 1352 c 2
EndSplineSet
Validated: 5
EndChar

StartChar: Q
Encoding: 81 81 28
GlifName: Q_
Width: 2969
Flags: HMW
LayerCount: 2
Fore
SplineSet
1495 -41 m 0
 664 -41 184 664 184 1536 c 0
 184 2408 704 3113 1495 3113 c 0
 2286 3113 2806 2408 2806 1536 c 0
 2806 664 2326 -41 1495 -41 c 0
1495 3043 m 0
 823 3043 655 2281 655 1536 c 0
 655 791 782 29 1495 29 c 0
 2208 29 2335 791 2335 1536 c 0
 2335 2281 2167 3043 1495 3043 c 0
2191 -942 m 1
 2191 -1024 l 1
 1319 -1024 1249 -709 1249 0 c 1
 1387.73169243 -9.13401197181 1510.16258457 -26.4182975579 1720 0 c 1
 1720 -745 1806 -942 2191 -942 c 1
EndSplineSet
Validated: 37
EndChar

StartChar: R
Encoding: 82 82 29
GlifName: R_
Width: 2846
Flags: HMW
LayerCount: 2
Fore
SplineSet
1434 1565 m 2
 819 1565 l 1
 819 1618 l 1
 1434 1618 l 2
 1827 1618 2048 1868 2048 2314 c 0
 2048 2760 1827 2990 1434 2990 c 2
 82 2990 l 1
 82 3072 l 1
 1434 3072 l 2
 2052 3072 2458 2846 2458 2314 c 0
 2458 1782 2093 1565 1434 1565 c 2
82 82 m 1
 1372 82 l 1
 1372 0 l 1
 82 0 l 1
 82 82 l 1
532 3072 m 1
 922 3072 l 1
 922 0 l 1
 532 0 l 1
 532 3072 l 1
2806 41 m 1
 2740 4 2584 -20 2437 -20 c 0
 1483 -20 2421 1536 1413 1536 c 2
 819 1536 l 1
 819 1577 l 1
 1495 1577 l 2
 2900 1577 2076 78 2580 78 c 0
 2666 78 2724 94 2781 119 c 1
 2806 41 l 1
EndSplineSet
Validated: 5
Substitution2: "'ss01' Style Set 1 lookup 2-1" R.alt
EndChar

StartChar: S
Encoding: 83 83 30
GlifName: S_
Width: 2293
Flags: HMW
LayerCount: 2
Fore
SplineSet
1966 2273 m 1
 1884 2273 l 1
 1802 2760 1499 3019 1114 3019 c 0
 721 3019 512 2802 512 2478 c 0
 512 1720 2130 1925 2130 819 c 0
 2130 287 1766 -61 1188 -61 c 0
 549 -61 282 307 184 799 c 1
 266 799 l 1
 348 393 619 29 1147 29 c 0
 1581 29 1843 270 1843 676 c 0
 1843 1516 225 1290 225 2355 c 0
 225 2806 618 3113 1073 3113 c 0
 1556 3113 1884 2851 1966 2273 c 1
1905 3113 m 1
 1966 3113 l 1
 1966 2273 l 1
 1899.77465201 2471.38444603 1812.98228133 2651.44902336 1720 2826 c 1
 1905 3113 l 1
246 -41 m 1
 184 -41 l 1
 184 799 l 1
 255.257763478 600.778882356 333.649779147 422.896460962 418 262 c 1
 246 -41 l 1
EndSplineSet
Validated: 5
EndChar

StartChar: T
Encoding: 84 84 31
GlifName: T_
Width: 2580
Flags: HMW
LayerCount: 2
Fore
SplineSet
655 82 m 1
 1946 82 l 1
 1946 0 l 1
 655 0 l 1
 655 82 l 1
1106 3031 m 5
 1495 3031 l 5
 1495 0 l 1
 1106 0 l 1
 1106 3031 l 5
1905 2990 m 2
 696 2990 l 2
 217 2990 164 2670 164 2150 c 1
 82 2150 l 1
 82 3072 l 1
 2519 3072 l 1
 2519 2150 l 1
 2437 2150 l 1
 2437 2670 2384 2990 1905 2990 c 2
EndSplineSet
Validated: 5
EndChar

StartChar: U
Encoding: 85 85 32
GlifName: U_
Width: 2846
Flags: HMW
LayerCount: 2
Fore
SplineSet
1987 3072 m 1
 2785 3072 l 1
 2785 2990 l 1
 1987 2990 l 1
 1987 3072 l 1
82 3072 m 1
 1249 3072 l 1
 1249 2990 l 1
 82 2990 l 1
 82 3072 l 1
2335 3072 m 1
 2417 3072 l 1
 2417 942 l 2
 2417 266 2122 -61 1475 -61 c 0
 766 -61 451 233 451 942 c 2
 451 3072 l 1
 840 3072 l 1
 840 983 l 2
 840 442 966 41 1556 41 c 0
 2023 41 2335 319 2335 942 c 2
 2335 3072 l 1
EndSplineSet
Validated: 5
EndChar

StartChar: V
Encoding: 86 86 33
GlifName: V_
Width: 2969
Flags: HMW
LayerCount: 2
Fore
SplineSet
2929 2990 m 1
 2028 2990 l 1
 2028 3072 l 1
 2929 3072 l 1
 2929 2990 l 1
1249 2990 m 1
 61 2990 l 1
 61 3072 l 1
 1249 3072 l 1
 1249 2990 l 1
1630 500 m 1
 2523 3072 l 1
 2626 3072 l 1
 1516 -61 l 1
 1434 -61 l 1
 348 3072 l 1
 799 3072 l 1
 1630 500 l 1
EndSplineSet
Validated: 5
EndChar

StartChar: W
Encoding: 87 87 34
GlifName: W_
Width: 3993
Flags: HMW
LayerCount: 2
Fore
SplineSet
2154 1946 m 1
 1495 -41 l 1
 1393 -41 l 1
 426 3072 l 1
 836 3072 l 1
 1602 586 l 1
 2089 2040 l 1
 2154 1946 l 1
2236 1946 m 1
 2171 2040 l 1
 2515 3072 l 1
 2613 3072 l 1
 2236 1946 l 1
3953 2990 m 1
 3133 2990 l 1
 3133 3072 l 1
 3953 3072 l 1
 3953 2990 l 1
1905 3072 m 1
 2671 586 l 1
 3502 3072 l 1
 3600 3072 l 1
 2564 -41 l 1
 2462 -41 l 1
 1495 3072 l 1
 1905 3072 l 1
2929 2990 m 1
 61 2990 l 1
 61 3072 l 1
 2929 3072 l 1
 2929 2990 l 1
EndSplineSet
Validated: 5
EndChar

StartChar: X
Encoding: 88 88 35
GlifName: X_
Width: 3010
Flags: HMW
LayerCount: 2
Fore
SplineSet
1532 1544 m 1
 1409 1544 l 1
 2298 3064 l 1
 2400 3064 l 1
 1532 1544 l 1
528 0 m 1
 414 0 l 1
 1466 1708 l 1
 1577 1708 l 1
 528 0 l 1
1823 82 m 1
 2970 82 l 1
 2970 0 l 1
 1823 0 l 1
 1823 82 l 1
61 82 m 1
 1044 82 l 1
 1044 0 l 1
 61 0 l 1
 61 82 l 1
1352 2990 m 1
 205 2990 l 1
 205 3072 l 1
 1352 3072 l 1
 1352 2990 l 1
2744 2990 m 1
 1843 2990 l 1
 1843 3072 l 1
 2744 3072 l 1
 2744 2990 l 1
2707 0 m 1
 2216 0 l 1
 451 3072 l 1
 926 3072 l 1
 2707 0 l 1
EndSplineSet
Validated: 5
EndChar

StartChar: Y
Encoding: 89 89 36
GlifName: Y_
Width: 2908
Flags: HMW
LayerCount: 2
Fore
SplineSet
2867 2990 m 1
 2007 2990 l 1
 2007 3072 l 1
 2867 3072 l 1
 2867 2990 l 1
1249 2990 m 1
 61 2990 l 1
 61 3072 l 1
 1249 3072 l 1
 1249 2990 l 1
942 82 m 1
 2109 82 l 1
 2109 0 l 1
 942 0 l 1
 942 82 l 1
1647 1647 m 1
 2503 3064 l 1
 2605 3064 l 1
 1700 1569 l 1
 1700 0 l 1
 1311 0 l 1
 1311 1475 l 1
 307 3072 l 1
 758 3072 l 1
 1647 1647 l 1
EndSplineSet
Validated: 5
EndChar

StartChar: Z
Encoding: 90 90 37
GlifName: Z_
Width: 2293
Flags: HMW
LayerCount: 2
Fore
SplineSet
143 3072 m 1
 2109 3072 l 1
 2109 2990 l 1
 492 82 l 1
 1413 82 l 2
 1974 82 2068 258 2068 778 c 1
 2150 778 l 1
 2150 0 l 1
 61 0 l 1
 61 82 l 1
 1679 2990 l 1
 881 2990 l 2
 320 2990 225 2814 225 2376 c 1
 143 2376 l 1
 143 3072 l 1
EndSplineSet
Validated: 1
EndChar

StartChar: a
Encoding: 97 97 38
GlifName: a
Width: 2174
VWidth: 4730
Flags: HMW
LayerCount: 2
Fore
SplineSet
2154 258 m 1
 2060 53 1888 -41 1712 -41 c 0
 1519 -41 1335 57 1335 299 c 2
 1335 1249 l 2
 1335 1523 1303 1819 975 1819 c 0
 795 1819 659 1761 602 1712 c 1
 676 1692 782 1638 782 1507 c 0
 782 1343 643 1274 541 1274 c 0
 418 1274 328 1352 328 1499 c 0
 328 1753 684 1917 1057 1917 c 0
 1671 1917 1704 1581 1704 1249 c 2
 1704 250 l 2
 1704 168 1757 106 1855 106 c 0
 1929 106 2015 152 2093 291 c 1
 2154 258 l 1
1081 1069 m 2
 1548 1069 l 1
 1548 987 l 1
 1081 987 l 2
 770 987 602 778 602 524 c 0
 602 291 697 106 922 106 c 0
 1155 106 1335 327 1335 741 c 1
 1397 741 l 1
 1397 233 1192 -41 737 -41 c 0
 413 -41 184 160 184 463 c 0
 184 807 499 1069 1081 1069 c 2
EndSplineSet
Validated: 5
EndChar

StartChar: b
Encoding: 98 98 39
GlifName: b
Width: 2428
VWidth: 4730
Flags: HMW
LayerCount: 2
Fore
SplineSet
696 942 m 0
 696 1565 942 1921 1397 1921 c 0
 1843 1921 2265 1556 2265 942 c 0
 2265 328 1843 -41 1397 -41 c 0
 942 -41 696 319 696 942 c 0
758 942 m 0
 758 352 1024 82 1315 82 c 0
 1659 82 1835 393 1835 942 c 0
 1835 1491 1659 1798 1315 1798 c 0
 1024 1798 758 1532 758 942 c 0
389 2990 m 1
 102 2990 l 1
 102 3072 l 5
 758 3072 l 1
 758 0 l 1
 102 0 l 1
 102 82 l 1
 389 82 l 1
 389 2990 l 1
EndSplineSet
Validated: 5
EndChar

StartChar: c
Encoding: 99 99 40
GlifName: c
Width: 2019
VWidth: 4730
Flags: HMW
LayerCount: 2
Fore
SplineSet
1659 1581 m 5
 1618 1696 1425 1839 1163 1839 c 4
 676 1839 594 1327 594 942 c 4
 594 475 701 53 1147 53 c 4
 1454 53 1643 287 1745 586 c 5
 1835 586 l 5
 1729 230 1512 -41 1098 -41 c 4
 561 -41 164 328 164 942 c 4
 164 1474 504 1925 1122 1925 c 4
 1540 1925 1802 1692 1802 1397 c 4
 1802 1229 1692 1143 1569 1143 c 4
 1467 1143 1335 1208 1335 1372 c 4
 1335 1515 1450 1597 1569 1597 c 4
 1614 1597 1643 1585 1659 1581 c 5
EndSplineSet
Validated: 1
EndChar

StartChar: d
Encoding: 100 100 41
GlifName: d
Width: 2428
VWidth: 4730
Flags: HMW
LayerCount: 2
Fore
SplineSet
1733 942 m 0
 1733 319 1487 -41 1032 -41 c 0
 586 -41 164 328 164 942 c 0
 164 1556 586 1921 1032 1921 c 0
 1487 1921 1733 1565 1733 942 c 0
1671 942 m 0
 1671 1532 1405 1798 1114 1798 c 0
 770 1798 594 1491 594 942 c 0
 594 393 770 82 1114 82 c 0
 1405 82 1671 352 1671 942 c 0
2327 82 m 1
 2327 0 l 1
 1671 0 l 1
 1671 2990 l 1
 1384 2990 l 1
 1384 3072 l 1
 2040 3072 l 1
 2040 82 l 1
 2327 82 l 1
EndSplineSet
Validated: 5
EndChar

StartChar: e
Encoding: 101 101 42
GlifName: e
Width: 2101
VWidth: 4730
Flags: HMW
LayerCount: 2
Fore
SplineSet
438 1028 m 1
 438 1110 l 1
 1520 1110 l 1
 1516 1389 1471 1843 1106 1843 c 0
 700 1843 594 1409 594 942 c 0
 594 475 721 41 1167 41 c 0
 1527 41 1774 287 1876 586 c 1
 1958 586 l 1
 1852 230 1573 -41 1118 -41 c 0
 581 -41 164 328 164 942 c 0
 164 1556 569 1925 1106 1925 c 0
 1716 1925 1954 1474 1954 1028 c 1
 438 1028 l 1
EndSplineSet
Validated: 5
EndChar

StartChar: f
Encoding: 102 102 43
GlifName: f
Width: 1474
VWidth: 4730
Flags: HMW
LayerCount: 2
Fore
SplineSet
82 82 m 1
 1311 82 l 1
 1311 0 l 1
 82 0 l 1
 82 82 l 1
82 1884 m 1
 1393 1884 l 1
 1393 1802 l 1
 82 1802 l 1
 82 1884 l 1
1593 2900 m 1
 1556 2949 1470 3031 1257 3031 c 0
 929 3031 819 2732 819 2212 c 2
 819 0 l 1
 451 0 l 1
 451 2097 l 2
 451 2634 725 3113 1257 3113 c 0
 1589 3113 1761 2900 1761 2707 c 0
 1761 2539 1651 2454 1528 2454 c 0
 1426 2454 1298 2511 1298 2675 c 0
 1298 2839 1417 2904 1556 2904 c 0
 1572 2904 1589 2901 1593 2900 c 1
EndSplineSet
Validated: 5
EndChar

StartChar: g
Encoding: 103 103 44
GlifName: g
Width: 2363
VWidth: 4730
Flags: HMW
LayerCount: 2
Fore
SplineSet
233 303 m 0
 233 606 643 725 1032 725 c 1
 1024 688 l 1
 848 688 512 614 512 434 c 0
 512 282 684 283 909 283 c 0
 1052 283 1085 287 1200 287 c 0
 1507 287 1843 221 1843 -336 c 0
 1843 -832 1434 -1065 983 -1065 c 0
 520 -1065 102 -901 102 -512 c 0
 102 -139 471 -8 655 -8 c 2
 696 -8 l 1
 512 -110 492 -287 492 -418 c 0
 492 -697 615 -971 1008 -971 c 0
 1414 -971 1647 -774 1647 -397 c 0
 1647 -176 1495 -37 1229 -37 c 0
 1143 -37 934 -37 844 -37 c 0
 475 -37 233 49 233 303 c 0
594 1290 m 0
 594 987 614 737 938 737 c 0
 1180 737 1282 987 1282 1290 c 0
 1282 1593 1180 1843 938 1843 c 0
 696 1843 594 1593 594 1290 c 0
205 1290 m 0
 205 1741 606 1925 938 1925 c 0
 1270 1925 1671 1741 1671 1290 c 0
 1671 839 1270 655 938 655 c 0
 606 655 205 839 205 1290 c 0
2154 1741 m 5
 2113 1807 2048 1823 1958 1823 c 4
 1806 1823 1598 1728 1516 1372 c 5
 1446 1421 l 5
 1528 1794 1794 1905 1958 1905 c 4
 2167 1905 2281 1770 2281 1614 c 4
 2281 1430 2175 1368 2073 1368 c 4
 1971 1368 1868 1438 1868 1573 c 4
 1868 1688 1949 1765 2064 1765 c 4
 2109 1765 2138 1749 2154 1741 c 5
EndSplineSet
Validated: 37
EndChar

StartChar: h
Encoding: 104 104 45
GlifName: h
Width: 2396
VWidth: 4730
Flags: HMW
LayerCount: 2
Fore
SplineSet
1638 1262 m 2
 1638 1606 1536 1802 1307 1802 c 0
 906 1802 758 1335 758 913 c 1
 696 913 l 1
 696 1331 798 1925 1425 1925 c 0
 1904 1925 2007 1663 2007 1307 c 2
 2007 0 l 1
 1638 0 l 1
 1638 1262 l 2
1352 82 m 1
 2294 82 l 1
 2294 0 l 1
 1352 0 l 1
 1352 82 l 1
102 82 m 1
 1044 82 l 1
 1044 0 l 1
 102 0 l 1
 102 82 l 1
389 2990 m 1
 102 2990 l 1
 102 3072 l 1
 758 3072 l 1
 758 0 l 1
 389 0 l 1
 389 2990 l 1
EndSplineSet
Validated: 5
EndChar

StartChar: i
Encoding: 105 105 46
GlifName: i
Width: 1187
VWidth: 4730
Flags: HMW
LayerCount: 2
Fore
SplineSet
123 82 m 1
 1065 82 l 1
 1065 0 l 1
 123 0 l 1
 123 82 l 1
307 2867 m 0
 307 3002 418 3113 553 3113 c 0
 688 3113 799 3002 799 2867 c 0
 799 2732 688 2621 553 2621 c 0
 418 2621 307 2732 307 2867 c 0
410 1802 m 1
 123 1802 l 1
 123 1884 l 1
 778 1884 l 1
 778 0 l 1
 410 0 l 1
 410 1802 l 1
EndSplineSet
Validated: 5
EndChar

StartChar: j
Encoding: 106 106 47
GlifName: j
Width: 1175
VWidth: 4730
Flags: HMW
LayerCount: 2
Fore
SplineSet
377 2867 m 0
 377 3002 488 3113 623 3113 c 0
 758 3113 868 3002 868 2867 c 0
 868 2732 758 2621 623 2621 c 0
 488 2621 377 2732 377 2867 c 0
840 1884 m 5
 840 -49 l 2
 840 -586 729 -1065 197 -1065 c 0
 -135 -1065 -307 -851 -307 -618 c 0
 -307 -450 -197 -365 -74 -365 c 0
 28 -365 156 -422 156 -586 c 0
 156 -750 37 -815 -102 -815 c 0
 -118 -815 -139 -811 -139 -811 c 1
 -139 -860 -4 -979 176 -979 c 0
 545 -979 471 -438 471 82 c 2
 471 1802 l 1
 102 1802 l 1
 102 1884 l 5
 840 1884 l 5
EndSplineSet
Validated: 33
EndChar

StartChar: k
Encoding: 107 107 48
GlifName: k
Width: 2400
VWidth: 4730
Flags: HMW
LayerCount: 2
Fore
SplineSet
2183 0 m 1
 1720 0 l 1
 807 1069 l 1
 1839 1884 l 1
 1974 1884 l 1
 1147 1217 l 1
 2183 0 l 1
1368 82 m 1
 2339 82 l 1
 2339 0 l 1
 1368 0 l 1
 1368 82 l 1
2200 1802 m 1
 1286 1802 l 1
 1286 1884 l 1
 2200 1884 l 1
 2200 1802 l 1
102 82 m 1
 1126 82 l 1
 1126 0 l 1
 102 0 l 1
 102 82 l 1
471 2990 m 1
 102 2990 l 1
 102 3072 l 5
 840 3072 l 5
 840 0 l 1
 471 0 l 1
 471 2990 l 1
EndSplineSet
Validated: 5
EndChar

StartChar: l
Encoding: 108 108 49
GlifName: l
Width: 1310
VWidth: 4730
Flags: HMW
LayerCount: 2
Fore
SplineSet
102 82 m 1
 1208 82 l 1
 1208 0 l 1
 102 0 l 1
 102 82 l 1
471 2990 m 1
 102 2990 l 1
 102 3072 l 1
 840 3072 l 1
 840 0 l 1
 471 0 l 1
 471 2990 l 1
EndSplineSet
Validated: 5
EndChar

StartChar: m
Encoding: 109 109 50
GlifName: m
Width: 3481
VWidth: 4730
Flags: HMW
LayerCount: 2
Fore
SplineSet
1925 1307 m 2
 1925 0 l 1
 1556 0 l 1
 1556 1262 l 2
 1556 1606 1495 1802 1266 1802 c 0
 906 1802 758 1335 758 913 c 1
 696 913 l 1
 696 1331 798 1925 1384 1925 c 0
 1781 1925 1925 1663 1925 1307 c 2
102 82 m 5
 1044 82 l 5
 1044 0 l 5
 102 0 l 5
 102 82 l 5
1270 82 m 1
 2212 82 l 1
 2212 0 l 1
 1270 0 l 1
 1270 82 l 1
2437 82 m 1
 3379 82 l 1
 3379 0 l 1
 2437 0 l 1
 2437 82 l 1
389 1802 m 1
 102 1802 l 1
 102 1884 l 1
 758 1884 l 1
 758 0 l 1
 389 0 l 1
 389 1802 l 1
3092 1307 m 2
 3092 0 l 1
 2724 0 l 1
 2724 1262 l 2
 2724 1606 2621 1802 2392 1802 c 0
 2011 1802 1925 1335 1925 913 c 1
 1851 913 l 1
 1851 1331 1884 1925 2511 1925 c 0
 2908 1925 3092 1663 3092 1307 c 2
EndSplineSet
Validated: 5
EndChar

StartChar: n
Encoding: 110 110 51
GlifName: n
Width: 2396
VWidth: 4730
Flags: HMW
LayerCount: 2
Fore
SplineSet
1638 1262 m 2
 1638 1606 1536 1802 1307 1802 c 0
 955 1802 758 1335 758 913 c 1
 696 913 l 1
 696 1331 839 1925 1425 1925 c 0
 1863 1925 2007 1663 2007 1307 c 2
 2007 0 l 1
 1638 0 l 1
 1638 1262 l 2
1352 82 m 1
 2294 82 l 1
 2294 0 l 1
 1352 0 l 1
 1352 82 l 1
102 82 m 5
 1044 82 l 5
 1044 0 l 5
 102 0 l 5
 102 82 l 5
389 1802 m 1
 102 1802 l 1
 102 1884 l 1
 758 1884 l 1
 758 0 l 1
 389 0 l 1
 389 1802 l 1
EndSplineSet
Validated: 5
EndChar

StartChar: o
Encoding: 111 111 52
GlifName: o
Width: 2203
VWidth: 4730
Flags: HMW
LayerCount: 2
Fore
SplineSet
594 942 m 4
 594 557 656 41 1102 41 c 4
 1548 41 1610 557 1610 942 c 4
 1610 1327 1548 1843 1102 1843 c 4
 656 1843 594 1327 594 942 c 4
164 942 m 4
 164 1474 524 1925 1102 1925 c 4
 1680 1925 2040 1474 2040 942 c 4
 2040 410 1680 -41 1102 -41 c 4
 524 -41 164 410 164 942 c 4
EndSplineSet
Validated: 1
EndChar

StartChar: p
Encoding: 112 112 53
GlifName: p
Width: 2428
VWidth: 4730
Flags: HMW
LayerCount: 2
Fore
SplineSet
696 942 m 0
 696 1565 942 1921 1397 1921 c 0
 1843 1921 2265 1556 2265 942 c 0
 2265 328 1843 -41 1397 -41 c 0
 942 -41 696 319 696 942 c 0
758 942 m 0
 758 352 1024 82 1315 82 c 0
 1659 82 1835 393 1835 942 c 0
 1835 1491 1659 1798 1315 1798 c 0
 1024 1798 758 1532 758 942 c 0
102 -942 m 1
 1044 -942 l 1
 1044 -1024 l 1
 102 -1024 l 1
 102 -942 l 1
389 1802 m 1
 102 1802 l 1
 102 1884 l 5
 758 1884 l 5
 758 -1024 l 1
 389 -1024 l 1
 389 1802 l 1
EndSplineSet
Validated: 5
EndChar

StartChar: q
Encoding: 113 113 54
GlifName: q
Width: 2428
VWidth: 4730
Flags: HMW
LayerCount: 2
Fore
SplineSet
1733 942 m 0
 1733 319 1487 -41 1032 -41 c 0
 586 -41 164 328 164 942 c 0
 164 1556 586 1921 1032 1921 c 0
 1487 1921 1733 1565 1733 942 c 0
1671 942 m 0
 1671 1532 1405 1798 1114 1798 c 0
 770 1798 594 1491 594 942 c 0
 594 393 770 82 1114 82 c 0
 1405 82 1671 352 1671 942 c 0
2327 -942 m 1
 2327 -1024 l 1
 1384 -1024 l 5
 1384 -942 l 1
 2327 -942 l 1
2327 1884 m 1
 2327 1802 l 1
 2040 1802 l 1
 2040 -1024 l 1
 1671 -1024 l 1
 1671 1884 l 1
 2327 1884 l 1
EndSplineSet
Validated: 5
EndChar

StartChar: r
Encoding: 114 114 55
GlifName: r
Width: 1703
VWidth: 4730
Flags: HMW
LayerCount: 2
Fore
SplineSet
1425 1802 m 1
 1384 1835 1331 1843 1270 1843 c 0
 881 1843 758 1314 758 913 c 1
 696 913 l 1
 696 1413 815 1925 1270 1925 c 0
 1458 1925 1647 1794 1647 1593 c 0
 1647 1454 1565 1343 1409 1343 c 0
 1274 1343 1167 1417 1167 1569 c 0
 1167 1729 1319 1802 1425 1802 c 1
102 82 m 1
 1044 82 l 1
 1044 0 l 1
 102 0 l 1
 102 82 l 1
389 1802 m 1
 102 1802 l 1
 102 1884 l 1
 758 1884 l 1
 758 0 l 1
 389 0 l 1
 389 1802 l 1
EndSplineSet
Validated: 5
EndChar

StartChar: s
Encoding: 115 115 56
GlifName: s
Width: 1761
VWidth: 4730
Flags: HMW
LayerCount: 2
Fore
SplineSet
1401 1528 m 1
 1344.18860194 1583.0130429 1297.16908926 1643.84828743 1249 1704 c 1
 1421 1925 l 1
 1483 1925 l 1
 1483 1352 l 1
 1401 1352 l 1
 1411.0034209 1409.23762492 1409.6419501 1468.09878493 1401 1528 c 1
1462 1352 m 1
 1401 1352 l 1
 1360 1569 1143 1831 811 1831 c 0
 655 1831 430 1733 430 1520 c 0
 430 1110 1618 1311 1618 582 c 0
 1618 217 1315 -41 918 -41 c 0
 533 -41 225 213 205 532 c 1
 266 532 l 1
 348 274 586 49 877 49 c 0
 1123 49 1360 151 1360 401 c 0
 1360 921 233 610 233 1372 c 0
 233 1634 418 1921 807 1921 c 0
 1208 1921 1462 1622 1462 1352 c 1
246 -41 m 1
 184 -41 l 1
 184 532 l 1
 266 532 l 1
 262.880352167 484.919869755 261.197531703 438.797792536 266 397 c 1
 299.906194871 314.239055009 364.815998694 250.767160952 418 180 c 1
 246 -41 l 1
EndSplineSet
Validated: 37
EndChar

StartChar: t
Encoding: 116 116 57
GlifName: t
Width: 1331
VWidth: 4730
Flags: HMW
LayerCount: 2
Fore
SplineSet
61 1884 m 1
 1167 1884 l 1
 1167 1802 l 1
 61 1802 l 1
 61 1884 l 1
1290 418 m 1
 1192 156 983 -29 733 -29 c 0
 397 -29 360 230 360 455 c 2
 360 2294 l 1
 483 2294 647 2356 729 2417 c 1
 729 377 l 2
 729 172 774 119 885 119 c 0
 1000 119 1143 266 1217 446 c 1
 1290 418 l 1
EndSplineSet
Validated: 5
EndChar

StartChar: u
Encoding: 117 117 58
GlifName: u
Width: 2396
VWidth: 4730
Flags: HMW
LayerCount: 2
Fore
SplineSet
758 1884 m 1
 758 623 l 2
 758 279 861 82 1090 82 c 0
 1442 82 1638 549 1638 971 c 1
 1700 971 l 1
 1700 553 1557 -41 971 -41 c 0
 533 -41 389 222 389 578 c 2
 389 1802 l 1
 102 1802 l 1
 102 1884 l 1
 758 1884 l 1
2007 82 m 1
 2294 82 l 1
 2294 0 l 1
 1638 0 l 1
 1638 1802 l 1
 1352 1802 l 1
 1352 1884 l 1
 2007 1884 l 1
 2007 82 l 1
EndSplineSet
Validated: 5
EndChar

StartChar: v
Encoding: 118 118 59
GlifName: v
Width: 2248
VWidth: 4730
Flags: HMW
LayerCount: 2
Fore
SplineSet
2228 1802 m 1
 1434 1802 l 1
 1434 1884 l 1
 2228 1884 l 1
 2228 1802 l 1
1090 1802 m 1
 20 1802 l 1
 20 1884 l 1
 1090 1884 l 1
 1090 1802 l 1
1257 422 m 1
 1835 1884 l 1
 1946 1884 l 1
 1176 -41 l 1
 1077 -41 l 1
 287 1884 l 1
 696 1884 l 1
 1257 422 l 1
EndSplineSet
Validated: 5
EndChar

StartChar: w
Encoding: 119 119 60
GlifName: w
Width: 3133
VWidth: 4730
Flags: HMW
LayerCount: 2
Fore
SplineSet
1049 1802 m 1
 20 1802 l 1
 20 1884 l 1
 1049 1884 l 1
 1049 1802 l 1
3113 1802 m 1
 2236 1802 l 1
 2236 1884 l 1
 3113 1884 l 1
 3113 1802 l 1
1106 451 m 1
 1679 1925 l 1
 1782 1925 l 1
 2228 508 l 1
 2687 1884 l 1
 2789 1884 l 1
 2146 -41 l 1
 2044 -41 l 1
 1561 1352 l 1
 1016 -41 l 1
 913 -41 l 1
 287 1884 l 1
 672 1884 l 1
 1106 451 l 1
EndSplineSet
Validated: 5
EndChar

StartChar: x
Encoding: 120 120 61
GlifName: x
Width: 2310
VWidth: 4730
Flags: HMW
LayerCount: 2
Fore
SplineSet
1303 82 m 1
 2249 82 l 1
 2249 0 l 1
 1303 0 l 1
 1303 82 l 1
61 82 m 1
 877 82 l 1
 877 0 l 1
 61 0 l 1
 61 82 l 1
1110 1802 m 1
 102 1802 l 1
 102 1884 l 1
 1110 1884 l 1
 1110 1802 l 1
2187 1802 m 5
 1393 1802 l 5
 1393 1884 l 5
 2187 1884 l 5
 2187 1802 l 5
2064 0 m 1
 1614 0 l 1
 328 1884 l 1
 778 1884 l 1
 2064 0 l 1
381 0 m 1
 266 0 l 1
 1827 1884 l 5
 1942 1884 l 5
 381 0 l 1
EndSplineSet
Validated: 5
EndChar

StartChar: y
Encoding: 121 121 62
GlifName: y
Width: 2285
VWidth: 4730
Flags: HMW
LayerCount: 2
Fore
SplineSet
1049 1802 m 1
 20 1802 l 1
 20 1884 l 1
 1049 1884 l 1
 1049 1802 l 1
2306 1802 m 1
 1548 1802 l 1
 1548 1884 l 1
 2306 1884 l 1
 2306 1802 l 1
1376 360 m 1
 1167 -70 l 1
 242 1884 l 1
 651 1884 l 1
 1376 360 l 1
815 -762 m 1
 1974 1884 l 1
 2085 1884 l 1
 901 -811 l 2
 827 -979 762 -1081 606 -1081 c 0
 504 -1081 377 -1016 377 -860 c 0
 377 -725 471 -631 602 -631 c 0
 708 -631 795 -692 815 -762 c 1
EndSplineSet
Validated: 5
EndChar

StartChar: z
Encoding: 122 122 63
GlifName: z
Width: 1843
VWidth: 4730
Flags: HMW
LayerCount: 2
Fore
SplineSet
803 1802 m 2
 336 1802 279 1594 279 1180 c 1
 197 1180 l 1
 197 1884 l 1
 1675 1884 l 1
 1675 1802 l 1
 524 82 l 1
 1040 82 l 2
 1601 82 1659 246 1659 754 c 1
 1741 754 l 1
 1741 0 l 1
 82 0 l 1
 82 82 l 1
 1229 1802 l 1
 803 1802 l 2
EndSplineSet
Validated: 1
EndChar

StartChar: comma
Encoding: 44 44 65
GlifName: comma
Width: 880
Flags: HMW
LayerCount: 2
Fore
SplineSet
164 201 m 4
 164 336 282 442 438 442 c 4
 598 442 725 315 725 16 c 4
 725 -271 525 -639 156 -639 c 5
 156 -557 l 5
 410 -557 610 -332 639 49 c 5
 549 -41 451 -41 381 -41 c 4
 246 -41 164 66 164 201 c 4
EndSplineSet
Validated: 1
EndChar

StartChar: exclam
Encoding: 33 33 67
GlifName: exclam
Width: 1310
Flags: HMW
LayerCount: 2
Fore
SplineSet
893 2699 m 4
 848 1978 692 1466 692 852 c 5
 610 852 l 5
 610 1466 455 1978 410 2699 c 4
 410 2728 410 2752 410 2777 c 4
 410 2965 458 3105 651 3105 c 4
 844 3105 897 2965 897 2777 c 4
 897 2752 893 2728 893 2699 c 4
EndSplineSet
Refer: 1 46 S 1 0 0 1 246 0 2
Validated: 1
EndChar

StartChar: quotesingle
Encoding: 39 39 70
GlifName: quotesingle
Width: 819
Flags: HMW
LayerCount: 2
Fore
SplineSet
610 2789 m 24
 565 2482 451 2450 451 1999 c 1
 369 1999 l 1
 369 2450 254 2482 209 2789 c 24
 205 2818 205 2838 205 2863 c 0
 205 3023 291 3113 410 3113 c 0
 529 3113 614 3023 614 2863 c 0
 614 2838 614 2818 610 2789 c 24
EndSplineSet
Validated: 1
EndChar

StartChar: question
Encoding: 63 63 75
GlifName: question
Width: 2252
Flags: HMW
LayerCount: 2
Fore
SplineSet
971 1430 m 5
 1409 1557 1634 1913 1634 2294 c 4
 1634 2679 1536 3027 1049 3027 c 4
 705 3027 430 2761 389 2605 c 5
 405 2609 434 2621 479 2621 c 4
 598 2621 713 2539 713 2396 c 4
 713 2232 581 2167 479 2167 c 4
 356 2167 246 2253 246 2421 c 4
 246 2757 631 3113 1090 3113 c 4
 1668 3113 2048 2786 2048 2294 c 4
 2048 1823 1631 1413 1053 1376 c 5
 1053 856 l 5
 971 856 l 5
 971 1430 l 5
EndSplineSet
Refer: 1 46 S 1 0 0 1 610 0 2
Validated: 1
EndChar

StartChar: parenleft
Encoding: 40 40 76
GlifName: parenleft
Width: 1482
Flags: HMW
LayerCount: 2
Fore
SplineSet
1442 -627 m 1
 1405 -696 l 1
 737 -409 266 377 266 1331 c 0
 266 2285 737 2990 1405 3277 c 1
 1442 3207 l 1
 934 2879 655 2117 655 1331 c 0
 655 545 934 -299 1442 -627 c 1
EndSplineSet
Validated: 1
EndChar

StartChar: at
Encoding: 64 64 79
GlifName: at
Width: 4136
VWidth: 4730
Flags: HMW
LayerCount: 2
Fore
SplineSet
2580 1458 m 0
 2580 794 2188 287 1778 287 c 0
 1454 287 1163 516 1163 942 c 0
 1163 1556 1635 2167 2122 2167 c 0
 2454 2167 2580 1794 2580 1458 c 0
2515 1417 m 0
 2515 1589 2457 2060 2187 2060 c 0
 1884 2060 1577 1491 1577 983 c 0
 1577 709 1639 397 1901 397 c 0
 2151 397 2515 893 2515 1417 c 0
2417 860 m 2
 2712 2130 l 1
 3080 2130 l 1
 2785 860 l 2
 2773 807 2597 373 2912 373 c 0
 3416 373 3830 1011 3830 1642 c 0
 3830 2367 3391 3154 2392 3154 c 0
 1249 3154 307 2101 307 864 c 0
 307 -353 1003 -795 1716 -795 c 0
 2388 -795 2785 -602 3154 -201 c 1
 3215 -262 l 1
 2871 -663 2384 -877 1716 -877 c 0
 966 -877 225 -418 225 864 c 0
 225 2146 1196 3236 2396 3236 c 0
 3432 3236 3912 2392 3912 1642 c 0
 3912 987 3530 279 2830 279 c 0
 2465 279 2360 606 2417 860 c 2
EndSplineSet
Validated: 37
EndChar

StartChar: dollar
Encoding: 36 36 80
GlifName: dollar
Width: 2273
Flags: HMW
LayerCount: 2
Fore
SplineSet
1249 3400 m 1
 1352 3400 l 1
 1352 -328 l 1
 1249 -328 l 1
 1249 3400 l 1
881 3400 m 1
 983 3400 l 1
 983 -328 l 1
 881 -328 l 1
 881 3400 l 1
1864 2642 m 1
 1819 2810 1561 3019 1217 3019 c 0
 783 3019 532 2802 532 2478 c 0
 532 1720 2109 1966 2109 860 c 0
 2109 287 1745 -61 1167 -61 c 0
 487 -61 123 328 123 594 c 0
 123 782 230 930 410 930 c 0
 533 930 672 839 672 659 c 0
 672 495 536 393 397 393 c 0
 331 393 291 410 266 422 c 1
 393 266 598 29 1126 29 c 0
 1560 29 1823 270 1823 676 c 0
 1823 1516 246 1249 246 2314 c 0
 246 2806 680 3113 1176 3113 c 0
 1618 3113 2028 2810 2028 2478 c 0
 2028 2290 1921 2142 1741 2142 c 0
 1618 2142 1479 2233 1479 2413 c 0
 1479 2577 1614 2679 1753 2679 c 0
 1798 2679 1848 2654 1864 2642 c 1
EndSplineSet
Validated: 5
EndChar

StartChar: numbersign
Encoding: 35 35 81
GlifName: numbersign
Width: 2580
Flags: HMW
LayerCount: 2
Fore
SplineSet
123 1085 m 1
 2335 1085 l 1
 2335 1004 l 1
 123 1004 l 1
 123 1085 l 1
246 2130 m 1
 2458 2130 l 1
 2458 2048 l 1
 246 2048 l 1
 246 2130 l 1
1843 3088 m 1
 1925 3092 l 1
 1516 -20 l 1
 1434 -25 l 1
 1843 3088 l 1
1024 3092 m 1
 1106 3092 l 1
 696 -20 l 1
 614 -20 l 1
 1024 3092 l 1
EndSplineSet
Validated: 5
EndChar

StartChar: slash
Encoding: 47 47 82
GlifName: slash
Width: 2129
Flags: HMW
LayerCount: 2
Fore
SplineSet
1884 3195 m 1
 1966 3195 l 1
 246 -614 l 5
 164 -614 l 1
 1884 3195 l 1
EndSplineSet
Validated: 1
EndChar

StartChar: percent
Encoding: 37 37 83
GlifName: percent
Width: 4096
Flags: HMW
LayerCount: 2
Fore
SplineSet
2765 860 m 0
 2765 442 2830 41 3133 41 c 0
 3436 41 3502 442 3502 860 c 0
 3502 1278 3436 1679 3133 1679 c 0
 2830 1679 2765 1278 2765 860 c 0
2314 860 m 0
 2314 1446 2670 1761 3133 1761 c 0
 3596 1761 3953 1446 3953 860 c 0
 3953 274 3514 -41 3133 -41 c 0
 2670 -41 2314 274 2314 860 c 0
3031 3072 m 5
 3133 3072 l 1
 1065 0 l 1
 963 0 l 1
 3031 3072 l 5
594 2212 m 0
 594 1794 660 1393 963 1393 c 0
 1266 1393 1331 1794 1331 2212 c 0
 1331 2630 1266 3031 963 3031 c 0
 660 3031 594 2630 594 2212 c 0
143 2212 m 0
 143 2798 500 3113 963 3113 c 0
 1426 3113 1782 2798 1782 2212 c 0
 1782 1626 1344 1311 963 1311 c 0
 500 1311 143 1626 143 2212 c 0
EndSplineSet
Validated: 1
EndChar

StartChar: hyphen
Encoding: 45 45 85
GlifName: hyphen
Width: 1474
Flags: HMW
LayerCount: 2
Fore
SplineSet
246 1167 m 5
 1229 1167 l 5
 1229 1085 l 5
 246 1085 l 5
 246 1167 l 5
EndSplineSet
Validated: 1
EndChar

StartChar: plus
Encoding: 43 43 87
GlifName: plus
Width: 2170
Flags: HMW
LayerCount: 2
Fore
SplineSet
1044 451 m 1
 1044 2130 l 1
 1126 2130 l 1
 1126 451 l 1
 1044 451 l 1
246 1335 m 1
 1925 1335 l 1
 1925 1253 l 1
 246 1253 l 1
 246 1335 l 1
EndSplineSet
Validated: 5
EndChar

StartChar: less
Encoding: 60 60 89
GlifName: less
Width: 2293
Flags: HMW
LayerCount: 2
Fore
SplineSet
246 1556 m 1
 246 1638 l 5
 2048 2458 l 1
 2048 2376 l 1
 246 1556 l 1
246 1536 m 1
 246 1618 l 1
 2048 799 l 1
 2048 717 l 1
 246 1536 l 1
EndSplineSet
Validated: 5
EndChar

StartChar: backslash
Encoding: 92 92 91
GlifName: backslash
Width: 2129
Flags: HMW
LayerCount: 2
Fore
SplineSet
266 3195 m 1
 1966 -614 l 1
 1864 -614 l 5
 164 3195 l 1
 266 3195 l 1
EndSplineSet
Validated: 1
EndChar

StartChar: bracketleft
Encoding: 91 91 92
GlifName: bracketleft
Width: 1331
Flags: HMW
LayerCount: 2
Fore
SplineSet
1208 -614 m 1
 225 -614 l 1
 225 -532 l 5
 1208 -532 l 5
 1208 -614 l 1
1208 3113 m 1
 225 3113 l 1
 225 3195 l 1
 1208 3195 l 1
 1208 3113 l 1
594 3195 m 1
 594 -614 l 1
 225 -614 l 1
 225 3195 l 1
 594 3195 l 1
EndSplineSet
Validated: 5
EndChar

StartChar: braceleft
Encoding: 123 123 93
GlifName: braceleft
Width: 1114
VWidth: 4730
Flags: HMW
LayerCount: 2
Fore
SplineSet
991 3195 m 1
 991 3113 l 1
 737 3113 606 2908 606 2650 c 0
 606 2339 745 2175 745 1765 c 0
 745 1425 528 1352 225 1270 c 1
 225 1331 l 5
 348 1372 471 1454 471 1622 c 0
 471 1880 225 2065 225 2626 c 0
 225 2991 397 3195 991 3195 c 1
991 -614 m 1
 397 -614 225 -406 225 -41 c 0
 225 520 471 705 471 963 c 0
 471 1131 348 1208 225 1249 c 1
 225 1311 l 1
 528 1229 745 1159 745 819 c 0
 745 409 606 245 606 -66 c 0
 606 -324 737 -532 991 -532 c 1
 991 -614 l 1
EndSplineSet
Validated: 5
EndChar

StartChar: bar
Encoding: 124 124 96
GlifName: bar
Width: 942
VWidth: 4730
Flags: HMW
LayerCount: 2
Fore
SplineSet
430 3195 m 1
 512 3195 l 1
 512 -1024 l 1
 430 -1024 l 1
 430 3195 l 1
EndSplineSet
Validated: 1
EndChar

StartChar: cent
Encoding: 162 162 98
GlifName: cent
Width: 2019
VWidth: 4730
Flags: HMW
LayerCount: 2
Fore
SplineSet
1151 2273 m 5
 1151 -348 l 5
 1069 -348 l 5
 1069 2273 l 5
 1151 2273 l 5
EndSplineSet
Refer: 40 99 N 1 0 0 1 0 0 2
Validated: 5
EndChar

StartChar: sterling
Encoding: 163 163 99
GlifName: sterling
Width: 2560
VWidth: 4730
Flags: HMW
LayerCount: 2
Fore
SplineSet
2466 643 m 1
 2466 49 2134 -123 1769 -123 c 0
 1208 -123 1024 123 766 123 c 0
 598 123 418 41 377 -82 c 1
 332 -82 l 1
 414 221 569 397 909 397 c 0
 1319 397 1483 258 1794 258 c 0
 2052 258 2384 307 2384 643 c 1
 2466 643 l 1
1905 1659 m 1
 1905 1577 l 1
 61 1577 l 1
 61 1659 l 1
 1905 1659 l 1
483 2253 m 0
 483 2826 914 3113 1573 3113 c 0
 2237 3113 2507 2777 2507 2441 c 0
 2507 2273 2388 2187 2265 2187 c 0
 2163 2187 2032 2253 2032 2417 c 0
 2032 2560 2146 2642 2265 2642 c 0
 2310 2642 2360 2625 2376 2621 c 1
 2376 2732 2163 3031 1655 3031 c 0
 1086 3031 938 2597 938 2294 c 0
 938 1888 1167 1618 1167 1311 c 0
 1167 574 324 553 377 -82 c 1
 295 -82 l 1
 217 487 815 807 815 1069 c 0
 815 1536 483 1782 483 2253 c 0
EndSplineSet
Validated: 37
EndChar

StartChar: section
Encoding: 167 167 101
GlifName: section
Width: 1830
VWidth: 4730
Flags: HMW
LayerCount: 2
Fore
SplineSet
430 2638 m 4
 430 2163 1708 2204 1708 1577 c 4
 1708 1323 1491 1187 1270 1040 c 5
 1208 1065 l 5
 1306 1155 1397 1241 1397 1364 c 4
 1397 1901 254 1745 254 2490 c 4
 254 2916 623 3113 930 3113 c 4
 1290 3113 1642 2941 1642 2507 c 4
 1642 2339 1540 2212 1397 2212 c 4
 1274 2212 1176 2294 1176 2441 c 4
 1176 2572 1290 2666 1409 2666 c 4
 1454 2666 1512 2642 1528 2638 c 5
 1495 2855 1266 3031 930 3031 c 4
 672 3031 430 2871 430 2638 c 4
1675 664 m 4
 1675 238 1348 -41 877 -41 c 4
 517 -41 123 103 123 578 c 4
 123 746 226 872 369 872 c 4
 492 872 590 790 590 643 c 4
 590 512 475 418 356 418 c 4
 311 418 254 442 238 446 c 5
 291 176 582 41 877 41 c 4
 1299 41 1438 262 1438 455 c 4
 1438 930 156 868 156 1454 c 4
 156 1749 398 1942 537 2048 c 5
 614 2048 l 5
 598 1999 508 1872 508 1708 c 4
 508 1171 1675 1409 1675 664 c 4
EndSplineSet
Validated: 5
EndChar

StartChar: asciitilde
Encoding: 126 126 104
GlifName: asciitilde
Width: 2818
VWidth: 4730
Flags: HMW
LayerCount: 2
Fore
SplineSet
872 1790 m 4
 655 1790 492 1700 492 1405 c 1
 410 1405 l 1
 410 1876 696 2089 1020 2089 c 0
 1471 2089 1512 1704 1905 1704 c 4
 2163 1704 2327 1794 2327 2089 c 1
 2408 2089 l 1
 2408 1618 2122 1405 1798 1405 c 0
 1278 1405 1294 1790 872 1790 c 4
EndSplineSet
Validated: 1
EndChar

StartChar: copyright
Encoding: 169 169 105
GlifName: copyright
Width: 3563
Flags: HMW
LayerCount: 2
Fore
SplineSet
205 1536 m 4
 205 2408 910 3113 1782 3113 c 4
 2654 3113 3359 2408 3359 1536 c 4
 3359 664 2654 -41 1782 -41 c 4
 910 -41 205 664 205 1536 c 4
287 1536 m 4
 287 713 959 41 1782 41 c 4
 2605 41 3277 713 3277 1536 c 4
 3277 2359 2605 3031 1782 3031 c 4
 959 3031 287 2359 287 1536 c 4
EndSplineSet
Refer: 14 67 N 0.6 0 0 0.6 868 614 2
Validated: 5
EndChar

StartChar: registered
Encoding: 174 174 106
GlifName: registered
Width: 3563
Flags: HMW
LayerCount: 2
Fore
SplineSet
205 1536 m 0
 205 2408 910 3113 1782 3113 c 0
 2654 3113 3359 2408 3359 1536 c 0
 3359 664 2654 -41 1782 -41 c 0
 910 -41 205 664 205 1536 c 0
287 1536 m 0
 287 713 959 41 1782 41 c 0
 2605 41 3277 713 3277 1536 c 0
 3277 2359 2605 3031 1782 3031 c 0
 959 3031 287 2359 287 1536 c 0
EndSplineSet
Refer: 29 82 N 0.6 0 0 0.6 975 606 2
Validated: 5
EndChar

StartChar: logicalnot
Encoding: 172 172 107
GlifName: logicalnot
Width: 1990
Flags: HMW
LayerCount: 2
Fore
SplineSet
1663 2437 m 1
 246 2437 l 1
 246 2519 l 1
 1745 2519 l 1
 1745 1692 l 1
 1663 1692 l 1
 1663 2437 l 1
EndSplineSet
Validated: 1
EndChar

StartChar: guillemotleft
Encoding: 171 171 108
GlifName: guillemotleft
Width: 2846
Flags: HMW
LayerCount: 2
Fore
SplineSet
1765 1589 m 1
 2642 635 l 1
 2601 594 l 1
 1249 1536 l 1
 1249 1638 l 1
 2601 2580 l 1
 2642 2540 l 5
 1765 1589 l 1
618 1589 m 1
 1495 635 l 1
 1454 594 l 1
 102 1536 l 1
 102 1638 l 1
 1454 2580 l 1
 1495 2540 l 1
 618 1589 l 1
EndSplineSet
Validated: 1
EndChar

StartChar: mu
Encoding: 181 181 111
GlifName: mu
Width: 2396
VWidth: 4730
Flags: HMW
LayerCount: 2
Fore
SplineSet
1110 -504 m 0
 1245 -504 1352 -622 1352 -778 c 0
 1352 -938 1266 -1065 967 -1065 c 0
 680 -1065 434 -865 434 -496 c 2
 434 1315 l 1
 516 1315 l 1
 516 -496 l 2
 516 -832 709 -974 979 -999 c 1
 979 -999 l 1
 868 -905 868 -795 868 -721 c 0
 868 -586 975 -504 1110 -504 c 0
EndSplineSet
Refer: 58 117 N 1 0 0 1 0 0 2
Validated: 5
EndChar

StartChar: asciicircum
Encoding: 94 94 113
GlifName: asciicircum
Width: 2232
Flags: HMW
LayerCount: 2
Fore
SplineSet
1114 2961 m 1
 451 2540 l 1
 410 2580 l 1
 983 3154 l 1
 1249 3154 l 1
 1823 2580 l 1
 1782 2540 l 1
 1114 2961 l 1
EndSplineSet
Validated: 1
EndChar

StartChar: degree
Encoding: 176 176 115
GlifName: degree
Width: 1310
Flags: HMW
LayerCount: 2
Fore
SplineSet
164 2785 m 0
 164 3055 385 3277 655 3277 c 0
 925 3277 1147 3055 1147 2785 c 0
 1147 2515 925 2294 655 2294 c 0
 385 2294 164 2515 164 2785 c 0
389 2785 m 0
 389 2633 503 2519 655 2519 c 4
 807 2519 922 2633 922 2785 c 0
 922 2937 807 3052 655 3052 c 4
 503 3052 389 2937 389 2785 c 0
EndSplineSet
Validated: 1
EndChar

StartChar: onequarter
Encoding: 188 188 119
GlifName: onequarter
Width: 2625
Flags: HMW
LayerCount: 2
Fore
SplineSet
2073 2662 m 5
 2154 2662 l 5
 246 -410 l 5
 164 -410 l 5
 2073 2662 l 5
EndSplineSet
Refer: 6 52 N 0.6 0 0 0.6 1106 -422 2
Refer: 3 49 N 0.6 0 0 0.6 -33 1458 2
Validated: 5
EndChar

StartChar: onehalf
Encoding: 189 189 120
GlifName: onehalf
Width: 2744
Flags: HMW
LayerCount: 2
Fore
SplineSet
2073 2662 m 1
 2154 2662 l 1
 246 -410 l 1
 164 -410 l 1
 2073 2662 l 1
EndSplineSet
Refer: 4 50 S 0.6 0 0 0.6 1397 -414 2
Refer: 3 49 N 0.6 0 0 0.6 -33 1458 2
Validated: 5
EndChar

StartChar: threequarters
Encoding: 190 190 121
GlifName: threequarters
Width: 2871
Flags: HMW
LayerCount: 2
Fore
SplineSet
2318 2662 m 1
 2400 2662 l 1
 492 -410 l 1
 410 -410 l 1
 2318 2662 l 1
EndSplineSet
Refer: 5 51 N 0.6 0 0 0.6 20 1450 2
Refer: 6 52 N 0.6 0 0 0.6 1352 -422 2
Validated: 5
EndChar

StartChar: grave
Encoding: 96 96 123
GlifName: grave
Width: 1617
Flags: HMW
LayerCount: 2
Fore
SplineSet
369 2949 m 6
 291 2953 225 3014 225 3092 c 4
 225 3170 295 3257 410 3228 c 6
 1393 2990 l 5
 1372 2908 l 5
 369 2949 l 6
EndSplineSet
Validated: 33
EndChar

StartChar: acute
Encoding: 180 180 124
GlifName: acute
Width: 1617
Flags: HMW
LayerCount: 2
Fore
SplineSet
1249 2949 m 6
 246 2908 l 5
 225 2990 l 5
 1208 3228 l 6
 1323 3257 1393 3170 1393 3092 c 4
 1393 3014 1327 2953 1249 2949 c 6
EndSplineSet
Validated: 33
EndChar

StartChar: cedilla
Encoding: 184 184 128
GlifName: cedilla
Width: 2252
Flags: HMW
LayerCount: 2
Fore
SplineSet
1348 -573 m 0
 1348 -356 1155 -324 889 -324 c 1
 1257 168 l 1
 1372 168 l 1
 1126 -160 l 1
 1421 -172 1638 -263 1638 -492 c 0
 1638 -697 1442 -901 946 -901 c 1
 946 -819 l 1
 1188 -819 1348 -712 1348 -573 c 0
EndSplineSet
Validated: 1
EndChar

StartChar: divide
Encoding: 247 247 131
GlifName: divide
Width: 2293
Flags: HMW
LayerCount: 2
Fore
SplineSet
205 1659 m 5
 2089 1659 l 5
 2089 1577 l 5
 205 1577 l 5
 205 1659 l 5
901 860 m 4
 901 995 1012 1106 1147 1106 c 4
 1282 1106 1392 995 1392 860 c 4
 1392 725 1282 614 1147 614 c 4
 1012 614 901 725 901 860 c 4
901 2314 m 4
 901 2449 1012 2560 1147 2560 c 4
 1282 2560 1392 2449 1392 2314 c 4
 1392 2179 1282 2068 1147 2068 c 4
 1012 2068 901 2179 901 2314 c 4
EndSplineSet
Validated: 1
EndChar

StartChar: ring
Encoding: 730 730 271
GlifName: ring
Width: 1310
VWidth: 0
Flags: HMW
LayerCount: 2
Fore
SplineSet
287 2785 m 0
 287 2994 446 3154 655 3154 c 0
 864 3154 1024 2994 1024 2785 c 0
 1024 2576 864 2417 655 2417 c 0
 446 2417 287 2576 287 2785 c 0
430 2785 m 0
 430 2613 503 2499 655 2499 c 0
 807 2499 881 2613 881 2785 c 4
 881 2957 807 3072 655 3072 c 0
 503 3072 430 2957 430 2785 c 0
EndSplineSet
Validated: 1
EndChar

StartChar: tilde
Encoding: 732 732 272
GlifName: tilde
Width: 1835
VWidth: 0
Flags: HMW
LayerCount: 2
Fore
SplineSet
545 2740 m 4
 410 2740 287 2671 287 2458 c 5
 205 2458 l 5
 205 2806 409 2978 610 2978 c 4
 897 2978 1102 2654 1290 2654 c 4
 1425 2654 1548 2724 1548 2937 c 5
 1630 2937 l 5
 1630 2548 1508 2417 1266 2417 c 4
 992 2417 762 2740 545 2740 c 4
EndSplineSet
Validated: 1
EndChar

StartChar: AE
Encoding: 198 198 274
GlifName: A_E_
Width: 4096
Flags: HMW
LayerCount: 2
Fore
SplineSet
2150 3072 m 1
 2245 3072 l 1
 463 0 l 1
 348 0 l 1
 2150 3072 l 1
61 82 m 1
 963 82 l 1
 963 0 l 1
 61 0 l 1
 61 82 l 1
1004 1044 m 1
 2191 1044 l 1
 2191 963 l 1
 1004 963 l 1
 1004 1044 l 1
2150 3072 m 1
 2540 3072 l 1
 2540 0 l 1
 2150 0 l 1
 2150 3072 l 1
2150 3072 m 1
 3932 3072 l 5
 3932 2232 l 5
 3850 2232 l 1
 3850 2670 3715 2990 3236 2990 c 2
 2150 2990 l 1
 2150 3072 l 1
3973 0 m 5
 1782 0 l 1
 1782 82 l 1
 3195 82 l 2
 3756 82 3891 402 3891 922 c 1
 3973 922 l 5
 3973 0 l 5
3154 1139 m 1
 3154 1413 3018 1548 2785 1548 c 2
 2540 1548 l 1
 2540 1630 l 1
 2785 1630 l 2
 3018 1630 3154 1745 3154 2019 c 1
 3236 2019 l 1
 3236 1139 l 1
 3154 1139 l 1
EndSplineSet
Validated: 5
EndChar

StartChar: ae
Encoding: 230 230 277
GlifName: ae
Width: 3125
VWidth: 4730
Flags: HMW
LayerCount: 2
Fore
SplineSet
287 1499 m 4
 287 1753 643 1917 1016 1917 c 4
 1548 1917 1581 1581 1581 1249 c 5
 1520 741 l 5
 1520 233 1274 -41 819 -41 c 4
 495 -41 143 78 143 463 c 4
 143 807 458 1069 1040 1069 c 6
 1384 1069 l 5
 1384 987 l 5
 1040 987 l 6
 729 987 561 778 561 524 c 4
 561 250 676 41 901 41 c 4
 1134 41 1294 327 1294 741 c 6
 1294 1249 l 6
 1294 1523 1262 1819 934 1819 c 4
 754 1819 618 1761 561 1712 c 5
 635 1692 741 1638 741 1507 c 4
 741 1343 602 1274 500 1274 c 4
 377 1274 287 1352 287 1499 c 4
2585 1110 m 5
 2581 1389 2536 1843 2171 1843 c 4
 1765 1843 1659 1409 1659 942 c 4
 1659 475 1786 41 2232 41 c 4
 2592 41 2839 287 2941 586 c 5
 3023 586 l 5
 2917 230 2638 -41 2183 -41 c 4
 1646 -41 1311 328 1311 942 c 4
 1311 1556 1634 1925 2171 1925 c 4
 2781 1925 3019 1474 3019 1028 c 5
 1503 1028 l 5
 1503 1110 l 5
 2585 1110 l 5
EndSplineSet
Validated: 5
EndChar

StartChar: perthousand
Encoding: 8240 8240 285
GlifName: perthousand
Width: 6021
Flags: HMW
LayerCount: 2
Fore
SplineSet
4690 860 m 0
 4690 442 4756 41 5059 41 c 0
 5362 41 5427 442 5427 860 c 0
 5427 1278 5362 1679 5059 1679 c 0
 4756 1679 4690 1278 4690 860 c 0
4239 860 m 0
 4239 1446 4596 1761 5059 1761 c 0
 5522 1761 5878 1446 5878 860 c 0
 5878 274 5440 -41 5059 -41 c 0
 4596 -41 4239 274 4239 860 c 0
2765 860 m 0
 2765 442 2830 41 3133 41 c 0
 3436 41 3502 442 3502 860 c 0
 3502 1278 3436 1679 3133 1679 c 0
 2830 1679 2765 1278 2765 860 c 0
2314 860 m 0
 2314 1446 2670 1761 3133 1761 c 0
 3596 1761 3953 1446 3953 860 c 0
 3953 274 3514 -41 3133 -41 c 0
 2670 -41 2314 274 2314 860 c 0
3031 3072 m 5
 3133 3072 l 1
 1065 0 l 1
 963 0 l 1
 3031 3072 l 5
594 2212 m 0
 594 1794 660 1393 963 1393 c 0
 1266 1393 1331 1794 1331 2212 c 0
 1331 2630 1266 3031 963 3031 c 0
 660 3031 594 2630 594 2212 c 0
143 2212 m 0
 143 2798 500 3113 963 3113 c 0
 1426 3113 1782 2798 1782 2212 c 0
 1782 1626 1344 1311 963 1311 c 0
 500 1311 143 1626 143 2212 c 0
EndSplineSet
Validated: 1
EndChar

StartChar: uni2031
Encoding: 8241 8241 286
GlifName: uni2031
Width: 7987
Flags: HMW
LayerCount: 2
Fore
SplineSet
6656 860 m 0
 6656 442 6722 41 7025 41 c 0
 7328 41 7393 442 7393 860 c 0
 7393 1278 7328 1679 7025 1679 c 0
 6722 1679 6656 1278 6656 860 c 0
6205 860 m 0
 6205 1446 6562 1761 7025 1761 c 0
 7488 1761 7844 1446 7844 860 c 0
 7844 274 7406 -41 7025 -41 c 0
 6562 -41 6205 274 6205 860 c 0
4690 860 m 0
 4690 442 4756 41 5059 41 c 0
 5362 41 5427 442 5427 860 c 0
 5427 1278 5362 1679 5059 1679 c 0
 4756 1679 4690 1278 4690 860 c 0
4239 860 m 0
 4239 1446 4596 1761 5059 1761 c 0
 5522 1761 5878 1446 5878 860 c 0
 5878 274 5440 -41 5059 -41 c 0
 4596 -41 4239 274 4239 860 c 0
2765 860 m 0
 2765 442 2830 41 3133 41 c 0
 3436 41 3502 442 3502 860 c 0
 3502 1278 3436 1679 3133 1679 c 0
 2830 1679 2765 1278 2765 860 c 0
2314 860 m 0
 2314 1446 2670 1761 3133 1761 c 0
 3596 1761 3953 1446 3953 860 c 0
 3953 274 3514 -41 3133 -41 c 0
 2670 -41 2314 274 2314 860 c 0
3031 3072 m 1
 3133 3072 l 1
 1065 0 l 5
 963 0 l 1
 3031 3072 l 1
594 2212 m 0
 594 1794 660 1393 963 1393 c 0
 1266 1393 1331 1794 1331 2212 c 0
 1331 2630 1266 3031 963 3031 c 0
 660 3031 594 2630 594 2212 c 0
143 2212 m 0
 143 2798 500 3113 963 3113 c 0
 1426 3113 1782 2798 1782 2212 c 0
 1782 1626 1344 1311 963 1311 c 0
 500 1311 143 1626 143 2212 c 0
EndSplineSet
Validated: 1
EndChar

StartChar: uniFB00
Encoding: 64256 64256 290
GlifName: uniF_B_00
Width: 2580
VWidth: 4730
Flags: HMW
LayerCount: 2
Fore
SplineSet
61 82 m 1
 2458 82 l 5
 2458 0 l 5
 61 0 l 1
 61 82 l 1
61 1884 m 1
 2540 1884 l 5
 2540 1802 l 5
 61 1802 l 1
 61 1884 l 1
1696 2654 m 5
 1696 2703 1532 2826 1319 2826 c 4
 1032 2826 799 2527 799 2007 c 2
 799 0 l 1
 430 0 l 1
 430 1892 l 2
 430 2429 787 2908 1319 2908 c 4
 1651 2908 1864 2695 1864 2462 c 4
 1864 2294 1753 2208 1630 2208 c 4
 1528 2208 1401 2265 1401 2429 c 4
 1401 2593 1520 2658 1659 2658 c 4
 1671 2658 1688 2654 1696 2654 c 5
2740 2900 m 5
 2699 2949 2617 3031 2404 3031 c 4
 2076 3031 1966 2732 1966 2212 c 6
 1966 0 l 5
 1597 0 l 5
 1597 2097 l 6
 1597 2634 1872 3113 2404 3113 c 4
 2736 3113 2908 2900 2908 2707 c 4
 2908 2539 2798 2454 2675 2454 c 4
 2573 2454 2445 2511 2445 2675 c 4
 2445 2839 2564 2904 2703 2904 c 4
 2715 2904 2732 2900 2740 2900 c 5
EndSplineSet
Validated: 5
Ligature2: "'liga' Standard Ligatures lookup 0-1" f f
LCarets2: 1 0
EndChar

StartChar: uniFB01
Encoding: 64257 64257 291
GlifName: uniF_B_01
Width: 2273
VWidth: 4730
Flags: HMW
LayerCount: 2
Fore
SplineSet
430 2097 m 2
 430 2634 746 3113 1360 3113 c 0
 1774 3113 1946 2899 1946 2666 c 0
 1946 2498 1835 2413 1712 2413 c 0
 1610 2413 1483 2470 1483 2634 c 0
 1483 2798 1602 2863 1741 2863 c 0
 1753 2863 1770 2859 1778 2859 c 1
 1778 2908 1655 3031 1360 3031 c 0
 950 3031 799 2732 799 2212 c 2
 799 0 l 1
 430 0 l 1
 430 2097 l 2
61 82 m 1
 2212 82 l 1
 2212 0 l 1
 61 0 l 1
 61 82 l 1
1556 1802 m 1
 61 1802 l 1
 61 1884 l 1
 1925 1884 l 1
 1925 0 l 1
 1556 0 l 1
 1556 1802 l 1
EndSplineSet
Validated: 5
Ligature2: "'liga' Standard Ligatures lookup 0-1" f i
LCarets2: 1 0
EndChar

StartChar: uniFB02
Encoding: 64258 64258 292
GlifName: uniF_B_02
Width: 2314
VWidth: 4730
Flags: HMW
LayerCount: 2
Fore
SplineSet
61 82 m 1
 2294 82 l 5
 2294 0 l 5
 61 0 l 1
 61 82 l 1
61 1884 m 1
 1352 1884 l 5
 1352 1802 l 5
 61 1802 l 1
 61 1884 l 1
1638 2990 m 5
 2007 3154 l 5
 2007 0 l 5
 1638 0 l 5
 1638 2990 l 5
1614 2859 m 5
 1614 2908 1491 3031 1278 3031 c 4
 950 3031 799 2732 799 2212 c 2
 799 0 l 1
 430 0 l 1
 430 2097 l 2
 430 2634 746 3113 1278 3113 c 4
 1610 3113 1782 2899 1782 2666 c 4
 1782 2498 1671 2413 1548 2413 c 4
 1446 2413 1319 2470 1319 2634 c 4
 1319 2798 1438 2863 1577 2863 c 4
 1589 2863 1606 2859 1614 2859 c 5
EndSplineSet
Validated: 5
Ligature2: "'liga' Standard Ligatures lookup 0-1" f l
LCarets2: 1 0
EndChar

StartChar: uniFB03
Encoding: 64259 64259 293
GlifName: uniF_B_03
Width: 3440
VWidth: 4730
Flags: HMW
LayerCount: 2
Fore
SplineSet
1597 2097 m 2
 1597 2634 1913 3113 2527 3113 c 0
 2941 3113 3113 2899 3113 2666 c 0
 3113 2498 3002 2413 2879 2413 c 0
 2777 2413 2650 2470 2650 2634 c 0
 2650 2798 2769 2863 2908 2863 c 0
 2920 2863 2937 2859 2945 2859 c 1
 2945 2908 2822 3031 2527 3031 c 0
 2117 3031 1966 2732 1966 2212 c 2
 1966 0 l 1
 1597 0 l 1
 1597 2097 l 2
61 82 m 1
 3379 82 l 1
 3379 0 l 1
 61 0 l 1
 61 82 l 1
430 1892 m 2
 430 2429 787 2908 1319 2908 c 0
 1651 2908 1864 2695 1864 2462 c 0
 1864 2294 1753 2208 1630 2208 c 0
 1528 2208 1401 2265 1401 2429 c 0
 1401 2593 1520 2658 1659 2658 c 0
 1671 2658 1688 2654 1696 2654 c 1
 1696 2703 1532 2826 1319 2826 c 0
 1032 2826 799 2527 799 2007 c 2
 799 0 l 1
 430 0 l 1
 430 1892 l 2
2724 1802 m 1
 61 1802 l 1
 61 1884 l 1
 3092 1884 l 1
 3092 0 l 1
 2724 0 l 1
 2724 1802 l 1
EndSplineSet
Validated: 5
Ligature2: "'liga' Standard Ligatures lookup 0-1" f f i
LCarets2: 2 0 0
EndChar

StartChar: uniFB04
Encoding: 64260 64260 294
GlifName: uniF_B_04
Width: 3522
VWidth: 4730
Flags: HMW
LayerCount: 2
Fore
SplineSet
61 82 m 1
 3461 82 l 1
 3461 0 l 1
 61 0 l 1
 61 82 l 1
61 1884 m 1
 2519 1884 l 1
 2519 1802 l 1
 61 1802 l 1
 61 1884 l 1
2806 2990 m 1
 3174 3154 l 1
 3174 0 l 1
 2806 0 l 1
 2806 2990 l 1
1696 2654 m 1
 1696 2703 1532 2826 1319 2826 c 0
 1032 2826 799 2527 799 2007 c 2
 799 0 l 1
 430 0 l 1
 430 1892 l 2
 430 2429 787 2908 1319 2908 c 0
 1651 2908 1864 2695 1864 2462 c 0
 1864 2294 1753 2208 1630 2208 c 0
 1528 2208 1401 2265 1401 2429 c 0
 1401 2593 1520 2658 1659 2658 c 0
 1671 2658 1688 2654 1696 2654 c 1
2781 2859 m 1
 2781 2908 2658 3031 2445 3031 c 0
 2117 3031 1966 2732 1966 2212 c 2
 1966 0 l 1
 1597 0 l 1
 1597 2097 l 2
 1597 2634 1913 3113 2445 3113 c 0
 2777 3113 2949 2899 2949 2666 c 0
 2949 2498 2839 2413 2716 2413 c 0
 2614 2413 2486 2470 2486 2634 c 0
 2486 2798 2605 2863 2744 2863 c 0
 2756 2863 2773 2859 2781 2859 c 1
EndSplineSet
Validated: 5
Ligature2: "'liga' Standard Ligatures lookup 0-1" f f l
LCarets2: 2 0 0
EndChar

StartChar: ogonek
Encoding: 731 731 295
GlifName: ogonek
Width: 2252
Flags: HMW
LayerCount: 2
Fore
SplineSet
1589 -463 m 1
 1528 -578 1409 -762 1118 -762 c 0
 909 -762 676 -656 676 -410 c 0
 676 -82 995 94 1245 176 c 1
 1262 131 l 1
 1135 61 1057 -131 1057 -307 c 0
 1057 -459 1114 -635 1253 -635 c 0
 1400 -635 1479 -520 1524 -434 c 1
 1589 -463 l 1
EndSplineSet
Validated: 1
EndChar

StartChar: dotlessi
Encoding: 305 305 296
GlifName: dotlessi
Width: 1105
VWidth: 4730
Flags: HMW
LayerCount: 2
Fore
SplineSet
82 82 m 1
 1024 82 l 1
 1024 0 l 1
 82 0 l 1
 82 82 l 1
369 1802 m 1
 82 1802 l 1
 82 1884 l 5
 737 1884 l 5
 737 0 l 1
 369 0 l 1
 369 1802 l 1
EndSplineSet
Validated: 5
EndChar

StartChar: uni0237
Encoding: 567 567 297
GlifName: uni0237
Width: 1093
VWidth: 4730
Flags: HMW
LayerCount: 2
Fore
SplineSet
799 1884 m 1
 799 -49 l 2
 799 -586 688 -1065 156 -1065 c 0
 -176 -1065 -348 -851 -348 -618 c 0
 -348 -450 -238 -365 -115 -365 c 0
 -13 -365 115 -422 115 -586 c 0
 115 -750 -4 -815 -143 -815 c 4
 -159 -815 -180 -811 -180 -811 c 1
 -180 -860 -45 -979 135 -979 c 0
 504 -979 430 -438 430 82 c 2
 430 1802 l 1
 61 1802 l 1
 61 1884 l 1
 799 1884 l 1
EndSplineSet
Validated: 33
EndChar

StartChar: kgreenlandic
Encoding: 312 312 306
GlifName: kgreenlandic
Width: 2318
VWidth: 4730
Flags: HMW
LayerCount: 2
Fore
SplineSet
2142 0 m 1
 1679 0 l 1
 766 1069 l 1
 1798 1884 l 1
 1933 1884 l 1
 1106 1217 l 1
 2142 0 l 1
1327 82 m 1
 2298 82 l 1
 2298 0 l 1
 1327 0 l 1
 1327 82 l 1
2159 1802 m 1
 1245 1802 l 1
 1245 1884 l 1
 2159 1884 l 1
 2159 1802 l 1
61 82 m 1
 1085 82 l 1
 1085 0 l 1
 61 0 l 1
 61 82 l 1
430 1802 m 1
 61 1802 l 1
 61 1884 l 5
 799 1884 l 5
 799 0 l 1
 430 0 l 1
 430 1802 l 1
EndSplineSet
Validated: 5
EndChar

StartChar: breve
Encoding: 728 728 307
GlifName: breve
Width: 1146
VWidth: 4730
Flags: HMW
LayerCount: 2
Fore
SplineSet
205 3109 m 1
 205 2908 352 2806 573 2806 c 0
 794 2806 942 2908 942 3109 c 1
 1024 3109 l 1
 1024 2859 942 2580 573 2580 c 0
 204 2580 123 2859 123 3109 c 1
 205 3109 l 1
EndSplineSet
Validated: 1
EndChar

StartChar: thorn
Encoding: 254 254 318
GlifName: thorn
Width: 2347
VWidth: 4730
Flags: HMW
LayerCount: 2
Fore
SplineSet
655 942 m 0
 655 1565 901 1921 1356 1921 c 0
 1802 1921 2224 1556 2224 942 c 0
 2224 328 1802 -41 1356 -41 c 0
 901 -41 655 319 655 942 c 0
717 942 m 0
 717 352 983 82 1274 82 c 0
 1618 82 1794 393 1794 942 c 0
 1794 1491 1618 1798 1274 1798 c 0
 983 1798 717 1532 717 942 c 0
61 -942 m 1
 1004 -942 l 1
 1004 -1024 l 1
 61 -1024 l 1
 61 -942 l 1
348 2990 m 1
 61 2990 l 1
 61 3072 l 5
 717 3072 l 5
 717 -1024 l 1
 348 -1024 l 1
 348 2990 l 1
EndSplineSet
Validated: 5
EndChar

StartChar: Thorn
Encoding: 222 222 319
GlifName: T_horn
Width: 2478
Flags: HMW
LayerCount: 2
Fore
SplineSet
430 3072 m 1
 819 3072 l 1
 819 0 l 1
 430 0 l 1
 430 3072 l 1
61 82 m 1
 1188 82 l 1
 1188 0 l 1
 61 0 l 1
 61 82 l 1
61 3072 m 1
 1188 3072 l 1
 1188 2990 l 1
 61 2990 l 1
 61 3072 l 1
1270 737 m 2
 737 737 l 5
 737 819 l 5
 1270 819 l 2
 1663 819 1884 1232 1884 1597 c 0
 1884 1962 1663 2376 1270 2376 c 2
 737 2376 l 5
 737 2458 l 5
 1270 2458 l 2
 2011 2458 2335 2129 2335 1597 c 0
 2335 1065 2011 737 1270 737 c 2
EndSplineSet
Validated: 5
EndChar

StartChar: Dcroat
Encoding: 272 272 320
GlifName: D_croat
Width: 2867
Flags: HMW
LayerCount: 2
Fore
SplineSet
451 3072 m 1
 840 3072 l 1
 840 0 l 1
 451 0 l 1
 451 3072 l 1
1229 0 m 2
 82 0 l 1
 82 82 l 1
 1229 82 l 2
 1983 82 2232 791 2232 1536 c 0
 2232 2281 1942 2990 1229 2990 c 2
 82 2990 l 1
 82 3072 l 1
 1229 3072 l 2
 2142 3072 2703 2408 2703 1536 c 0
 2703 664 2101 0 1229 0 c 2
102 1536 m 5
 1298 1536 l 5
 1298 1454 l 5
 102 1454 l 5
 102 1536 l 5
EndSplineSet
Validated: 5
EndChar

StartChar: Lslash
Encoding: 321 321 324
GlifName: L_slash
Width: 2334
Flags: HMW
LayerCount: 2
Fore
SplineSet
61 1475 m 5
 1475 2376 l 5
 1475 2273 l 5
 61 1372 l 5
 61 1475 l 5
EndSplineSet
Refer: 23 76 N 1 0 0 1 0 0 2
Validated: 5
EndChar

StartChar: lslash
Encoding: 322 322 325
GlifName: lslash
Width: 1310
VWidth: 4730
Flags: HMW
LayerCount: 2
Fore
SplineSet
61 1638 m 1
 1229 2376 l 1
 1229 2265 l 5
 61 1528 l 5
 61 1638 l 1
EndSplineSet
Refer: 49 108 N 1 0 0 1 0 0 2
Validated: 5
EndChar

StartChar: eth
Encoding: 240 240 329
GlifName: eth
Width: 2293
VWidth: 4730
Flags: HMW
LayerCount: 2
Fore
SplineSet
451 2580 m 1
 2171 2580 l 1
 2171 2499 l 1
 451 2499 l 1
 451 2580 l 1
2089 1270 m 0
 2089 410 1708 -41 1090 -41 c 0
 472 -41 123 410 123 1024 c 0
 123 1720 606 2007 1020 2007 c 0
 1557 2007 1737 1626 1737 1147 c 5
 1679 1147 l 5
 1679 1598 1450 1888 1110 1888 c 0
 745 1888 532 1573 532 1024 c 0
 532 557 631 41 1077 41 c 0
 1523 41 1679 598 1679 1147 c 1
 1659 1516 l 1
 1659 2221 1143 3043 430 3043 c 1
 430 3113 l 1
 1343 3113 2089 2265 2089 1270 c 0
EndSplineSet
Validated: 5
EndChar

StartChar: OE
Encoding: 338 338 330
GlifName: O_E_
Width: 3891
Flags: HMW
LayerCount: 2
Fore
SplineSet
1597 2990 m 1025,31,-1
635 1536 m 0,32,33
 635 791 843 82 1597 82 c 1,34,-1
 1556 0 l 1,35,36
 725 0 164 623 164 1536 c 0,37,38
 164 2449 725 3072 1556 3072 c 1,39,-1
 1597 2990 l 1,40,41
 843 2990 635 2281 635 1536 c 0,32,33
EndSplineSet
Refer: 16 69 N 1 0 0 1 1495 0 2
Validated: 5
EndChar

StartChar: germandbls
Encoding: 223 223 332
GlifName: germandbls
Width: 2789
VWidth: 4730
Flags: HMW
LayerCount: 2
Fore
SplineSet
1405 1642 m 1
 1405 1700 l 1
 1933 1700 2089 2077 2089 2339 c 0
 2089 2634 1954 3043 1528 3043 c 0
 979 3043 799 2552 799 1970 c 2
 799 0 l 1
 430 0 l 1
 430 2011 l 2
 430 2720 860 3113 1528 3113 c 0
 2114 3113 2503 2761 2503 2380 c 0
 2503 1970 2228 1642 1405 1642 c 1
61 82 m 1
 1167 82 l 1
 1167 0 l 1
 61 0 l 1
 61 82 l 1
2626 655 m 0
 2626 245 2261 -41 1847 -41 c 0
 1556 -41 1323 180 1323 557 c 0
 1323 725 1434 823 1577 823 c 0
 1700 823 1798 741 1798 594 c 0
 1798 463 1684 369 1565 369 c 0
 1520 369 1474 377 1425 418 c 1
 1445 221 1614 41 1827 41 c 0
 2151 41 2212 393 2212 655 c 0
 2212 1040 2097 1622 1405 1622 c 1
 1405 1679 l 1
 2392 1679 2626 1187 2626 655 c 0
EndSplineSet
Validated: 5
EndChar

StartChar: circumflex
Encoding: 710 710 335
GlifName: circumflex
Width: 1576
Flags: HMW
LayerCount: 2
Fore
SplineSet
786 2970 m 5
 246 2662 l 5
 205 2703 l 5
 655 3154 l 5
 922 3154 l 5
 1372 2703 l 5
 1331 2662 l 5
 786 2970 l 5
EndSplineSet
Validated: 1
EndChar

StartChar: caron
Encoding: 711 711 336
GlifName: caron
Width: 1576
Flags: HMW
LayerCount: 2
Fore
SplineSet
786 2929 m 5
 1331 3236 l 5
 1372 3195 l 5
 922 2744 l 5
 655 2744 l 5
 205 3195 l 5
 246 3236 l 5
 786 2929 l 5
EndSplineSet
Validated: 1
EndChar

StartChar: pi
Encoding: 960 960 337
GlifName: pi
Width: 2379
VWidth: 4730
Flags: HMW
LayerCount: 2
Fore
SplineSet
2236 422 m 1
 2142 135 1970 -41 1794 -41 c 0
 1601 -41 1417 57 1417 299 c 2
 1417 1720 l 1
 1786 1720 l 1
 1786 414 l 2
 1786 332 1839 266 1937 266 c 0
 2011 266 2097 316 2175 455 c 1
 2236 422 l 1
426 -41 m 0
 258 -41 184 54 184 156 c 0
 184 435 643 336 643 1143 c 2
 643 1843 l 1
 872 1843 l 1
 872 995 l 2
 872 348 705 -41 426 -41 c 0
2154 1884 m 5
 2154 1516 l 1
 250 1516 l 1
 250 1208 l 1
 168 1208 l 1
 168 1884 l 5
 2154 1884 l 5
EndSplineSet
Validated: 5
EndChar

StartChar: uni1E9E
Encoding: 7838 7838 338
GlifName: uni1E_9E_
Width: 3280
VWidth: 4730
Flags: HMW
LayerCount: 2
Fore
SplineSet
61 82 m 1
 1208 82 l 1
 1208 0 l 1
 61 0 l 1
 61 82 l 1
2142 1642 m 1
 2005.66666667 1663.24387912 1869.33333332 1681.42713342 1733 1700 c 1
 2658 2847 l 1
 2474 2958 2199 3031 1896 3031 c 0
 1183 3031 840 2470 840 1765 c 2
 840 0 l 1
 430 0 l 1
 430 1806 l 2
 430 2637 1065 3113 1896 3113 c 0
 2523 3113 2871 2842 2994 2707 c 1
 2142 1642 l 1
1393 385 m 1
 1413 270 1622 49 2011 49 c 0
 2498 49 2683 393 2683 778 c 0
 2683 1081 2630 1622 1733 1622 c 1
 1733 1700 l 1
 2925 1700 3117 1229 3117 778 c 0
 3117 246 2671 -41 2093 -41 c 0
 1511 -41 1249 262 1249 557 c 0
 1249 725 1352 823 1495 823 c 0
 1618 823 1716 741 1716 594 c 0
 1716 463 1602 369 1483 369 c 0
 1438 369 1409 381 1393 385 c 1
EndSplineSet
Validated: 5
EndChar

StartChar: uni203D
Encoding: 8253 8253 339
GlifName: uni203D_
Width: 2457
Flags: HMW
LayerCount: 2
Fore
SplineSet
1499 1982 m 4
 1454 1589 1257 1139 1257 852 c 5
 1176 852 l 5
 1176 1139 1061 1589 1016 1982 c 4
 1012 2011 1012 2035 1012 2060 c 4
 1012 2175 1064 2367 1257 2367 c 4
 1450 2367 1503 2175 1503 2060 c 4
 1503 2035 1503 2011 1499 1982 c 4
287 2216 m 4
 287 2593 671 3113 1335 3113 c 4
 1953 3113 2335 2785 2335 2253 c 4
 2335 1761 1835 1372 1339 1372 c 5
 1339 1430 l 5
 1695 1475 1962 1913 1962 2294 c 4
 1962 2679 1687 2986 1241 2986 c 4
 692 2986 471 2597 430 2400 c 5
 446 2404 475 2417 520 2417 c 4
 639 2417 754 2334 754 2191 c 4
 754 2027 622 1962 520 1962 c 4
 397 1962 287 2048 287 2216 c 4
EndSplineSet
Refer: 1 46 S 1 0 0 1 815 0 2
Validated: 5
EndChar

StartChar: R.alt
Encoding: 65536 -1 340
GlifName: R_.alt
Width: 2764
Flags: HMW
LayerCount: 2
Fore
SplineSet
1434 1565 m 6
 819 1565 l 5
 819 1618 l 5
 1434 1618 l 6
 1827 1618 2048 1868 2048 2314 c 4
 2048 2760 1827 2990 1434 2990 c 6
 82 2990 l 5
 82 3072 l 5
 1434 3072 l 6
 2052 3072 2458 2846 2458 2314 c 4
 2458 1782 2093 1565 1434 1565 c 6
82 82 m 1
 1372 82 l 1
 1372 0 l 1
 82 0 l 1
 82 82 l 1
532 3072 m 1
 922 3072 l 1
 922 0 l 1
 532 0 l 1
 532 3072 l 1
2724 0 m 1
 2658 0 2584 0 2437 0 c 0
 1483 0 2380 1536 1413 1536 c 2
 819 1536 l 1
 819 1577 l 1
 1495 1577 l 2
 2900 1577 2117 82 2580 82 c 0
 2666 82 2667 82 2724 82 c 1
 2724 0 l 1
EndSplineSet
Validated: 5
EndChar

StartChar: J.alt
Encoding: 65537 -1 341
GlifName: J_.alt
Width: 2215
Flags: HMW
LayerCount: 2
Fore
SplineSet
864 3072 m 5
 2154 3072 l 5
 2154 2990 l 5
 864 2990 l 5
 864 3072 l 5
1356 3072 m 5
 1745 3072 l 5
 1745 1147 l 6
 1745 492 1421 -41 762 -41 c 4
 283 -41 82 307 82 594 c 4
 82 848 233 983 397 983 c 4
 540 983 668 909 668 721 c 4
 668 578 536 463 397 463 c 4
 311 463 209 516 168 586 c 5
 172 336 328 41 762 41 c 4
 1258 41 1356 451 1356 1024 c 6
 1356 3072 l 5
EndSplineSet
Validated: 5
EndChar

StartChar: four.alt
Encoding: 65538 -1 342
GlifName: four.alt
Width: 2437
VWidth: 4730
Flags: HMW
LayerCount: 2
Fore
SplineSet
2171 82 m 1
 2171 0 l 1
 1085 0 l 1
 1085 82 l 1
 2171 82 l 1
1864 2040 m 1
 1864 16 l 5
 1475 16 l 5
 1475 1958 l 1
 1598 1958 1782 1999 1864 2040 c 1
213 840 m 1
 2232 840 l 1
 2232 758 l 1
 61 758 l 1
 634 1577 1311 2458 1393 3072 c 1
 1794 3072 l 1
 1716 2478 791 1635 213 840 c 1
EndSplineSet
Validated: 5
EndChar

StartChar: fj.lig
Encoding: 65539 -1 343
GlifName: fj.lig
Width: 2232
VWidth: 4730
Flags: HMW
LayerCount: 2
Fore
SplineSet
61 82 m 1
 1188 82 l 1
 1188 0 l 1
 61 0 l 1
 61 82 l 1
1884 -49 m 2
 1884 -586 1773 -1065 1241 -1065 c 0
 909 -1065 737 -851 737 -618 c 0
 737 -450 848 -365 971 -365 c 0
 1073 -365 1200 -422 1200 -586 c 0
 1200 -750 1081 -815 942 -815 c 0
 930 -815 913 -811 905 -811 c 1
 905 -860 1041 -979 1221 -979 c 0
 1590 -979 1516 -438 1516 82 c 2
 1516 1802 l 1
 61 1802 l 1
 61 1884 l 1
 1884 1884 l 1
 1884 -49 l 2
1737 2859 m 1
 1737 2908 1614 3031 1319 3031 c 0
 909 3031 799 2732 799 2212 c 2
 799 0 l 1
 430 0 l 1
 430 2097 l 2
 430 2634 705 3113 1319 3113 c 0
 1733 3113 1905 2899 1905 2666 c 0
 1905 2498 1794 2413 1671 2413 c 0
 1569 2413 1442 2470 1442 2634 c 0
 1442 2798 1561 2863 1700 2863 c 0
 1712 2863 1729 2859 1737 2859 c 1
EndSplineSet
Validated: 37
LCarets2: 1 0
Ligature2: "'liga' Standard Ligatures lookup 0-1" f j
EndChar

StartChar: uni2116
Encoding: 8470 8470 344
GlifName: uni2116
Width: 4448
Flags: HW
LayerCount: 2
Fore
SplineSet
3297 2335 m 4
 3297 1868 3399 1638 3641 1638 c 4
 3883 1638 3985 1868 3985 2335 c 4
 3985 2802 3883 3031 3641 3031 c 4
 3399 3031 3297 2802 3297 2335 c 4
2949 2335 m 4
 2949 2827 3227 3113 3641 3113 c 4
 4055 3113 4334 2827 4334 2335 c 4
 4334 1843 4055 1556 3641 1556 c 4
 3227 1556 2949 1843 2949 2335 c 4
EndSplineSet
Refer: 85 45 S 1 0 0 1 2904 164 2
Refer: 25 78 S 1 0 0 1 0 0 2
Validated: 5
EndChar

StartChar: Euro
Encoding: 8364 8364 345
GlifName: E_uro
Width: 2908
Flags: HW
LayerCount: 2
Fore
SplineSet
2540 2707 m 1
 2458 2830 2265 3027 1921 3027 c 0
 1229 3027 983 2249 983 1536 c 0
 983 741 1295 53 1823 53 c 0
 2212 53 2483 389 2585 729 c 1
 2675 729 l 1
 2569 332 2270 -41 1774 -41 c 0
 1156 -41 512 594 512 1536 c 0
 512 2396 1057 3113 1880 3113 c 0
 2380 3113 2683 2736 2683 2523 c 0
 2683 2355 2572 2269 2449 2269 c 0
 2347 2269 2216 2335 2216 2499 c 0
 2216 2642 2330 2724 2449 2724 c 0
 2494 2724 2524 2711 2540 2707 c 1
EndSplineSet
Refer: 88 61 N 1 0 0 1 -123 -287 2
Validated: 5
EndChar

